<svg class="animated" id="freepik_stories-messages" xmlns="http://www.w3.org/2000/svg" viewBox="0 0 500 500" version="1.1" xmlns:xlink="http://www.w3.org/1999/xlink" xmlns:svgjs="http://svgjs.com/svgjs"><style>svg#freepik_stories-messages:not(.animated) .animable {opacity: 0;}svg#freepik_stories-messages.animated #freepik--character-2--inject-39 {animation: 1s 1 forwards ease-in slideUp,1.5s Infinite  linear floating;animation-delay: 0s,1s;}svg#freepik_stories-messages.animated #freepik--character-1--inject-39 {animation: 1s 1 forwards cubic-bezier(.36,-0.01,.5,1.38) slideLeft,1.5s Infinite  linear floating;animation-delay: 0s,1s;}            @keyframes slideUp {                0% {                    opacity: 0;                    transform: translateY(30px);                }                100% {                    opacity: 1;                    transform: inherit;                }            }                    @keyframes floating {                0% {                    opacity: 1;                    transform: translateY(0px);                }                50% {                    transform: translateY(-10px);                }                100% {                    opacity: 1;                    transform: translateY(0px);                }            }                    @keyframes slideLeft {                0% {                    opacity: 0;                    transform: translateX(-30px);                }                100% {                    opacity: 1;                    transform: translateX(0);                }            }        </style><g id="freepik--background-complete--inject-39" class="animable" style="transform-origin: 253.075px 219.98px;"><path d="M87.59,239.56l-13.12.27-6.66.12c-2.23,0-4.47,0-6.7.05h-.44v-.44l-.06-11.19v-.51h.5l13.24.06c4.42,0,8.83.11,13.24.16h.28v.27c0,1.89-.09,3.78-.13,5.65Zm0,0-.14-5.66c0-1.86-.11-3.7-.13-5.53l.27.27c-4.41.05-8.82.16-13.24.16l-13.24.07.5-.5,0,11.19-.45-.45c2.18,0,4.36,0,6.55,0l6.58.12Z" style="fill: rgb(235, 235, 235); transform-origin: 74.24px 233.93px;" id="elv8m0x8j9ci" class="animable"></path><path d="M72.82,253.67l-13.12.27-6.66.12c-2.23,0-4.47,0-6.7.05H45.9v-.44l-.06-11.19V242h.5l13.24.06c4.41,0,8.83.11,13.24.16h.28v.27c0,1.89-.08,3.78-.13,5.65Zm0,0L72.68,248c-.05-1.86-.11-3.7-.13-5.53l.27.27c-4.41.05-8.83.16-13.24.16L46.34,243l.5-.49-.05,11.19-.45-.45c2.18,0,4.36,0,6.55.05l6.58.12Z" style="fill: rgb(235, 235, 235); transform-origin: 59.47px 248.055px;" id="el33ahfv5xeer" class="animable"></path><path d="M363.58,360.91l-13.12.27-6.66.12c-2.23,0-4.47,0-6.7.05h-.44v-.44l-.06-11.19v-.51h.5l13.24.06c4.42,0,8.83.11,13.24.16h.28v.27c0,1.89-.09,3.78-.14,5.65Zm0,0-.14-5.66c0-1.86-.11-3.7-.13-5.53l.27.27c-4.41.05-8.82.16-13.24.16l-13.24.07.5-.5-.05,11.19-.45-.45c2.18,0,4.36,0,6.55.05l6.58.12Z" style="fill: rgb(235, 235, 235); transform-origin: 350.23px 355.28px;" id="el7w5nr1ofer" class="animable"></path><path d="M348.81,375l-13.12.27-6.67.12c-2.22,0-4.46,0-6.69,0h-.44V375l-.05-11.19v-.51h.5l13.24.06c4.41,0,8.83.11,13.24.16h.28v.27c0,1.89-.08,3.78-.13,5.65Zm0,0-.14-5.66c-.05-1.86-.11-3.7-.13-5.53l.27.27c-4.41,0-8.83.16-13.24.16l-13.24.07.5-.5L322.78,375l-.45-.45c2.18,0,4.36,0,6.55.05l6.57.12Z" style="fill: rgb(235, 235, 235); transform-origin: 335.47px 369.345px;" id="el9xtzxsz2d5c" class="animable"></path><path d="M453.66,253.67l-13.13.27-6.66.12c-2.22,0-4.46,0-6.69.05h-.45v-.44l-.05-11.19V242h.5l13.24.06c4.41,0,8.83.11,13.24.16h.27v.27c0,1.89-.08,3.78-.13,5.65Zm0,0-.14-5.66c0-1.86-.12-3.7-.13-5.53l.27.27c-4.41.05-8.83.16-13.24.16l-13.24.06.5-.49-.06,11.19-.44-.45c2.18,0,4.36,0,6.54.05l6.58.12Z" style="fill: rgb(235, 235, 235); transform-origin: 440.305px 248.055px;" id="elhmucrrp12v" class="animable"></path><path d="M438.89,55.2l-13.13.28-6.66.11c-2.22,0-4.46,0-6.69.06H412V55.2l0-11.19v-.5h.51l13.24.06c4.41,0,8.82.12,13.24.17h.27V44c0,1.9-.09,3.79-.13,5.65Zm0,0-.14-5.65c-.05-1.87-.12-3.71-.14-5.54l.28.27c-4.42,0-8.83.16-13.24.17l-13.24.06.5-.5-.06,11.19-.44-.45c2.18,0,4.35,0,6.54.06l6.58.11Z" style="fill: rgb(235, 235, 235); transform-origin: 425.63px 49.58px;" id="elxoodrqry7rs" class="animable"></path><path d="M453.66,69.31l-13.13.28-6.66.11c-2.22,0-4.46,0-6.69.06h-.45v-.45l-.05-11.19v-.5h.5l13.24.06c4.41,0,8.83.12,13.24.17h.27v.27c0,1.9-.08,3.79-.13,5.65Zm0,0-.14-5.65c0-1.87-.12-3.71-.13-5.54l.27.27c-4.41,0-8.83.16-13.24.17l-13.24.06.5-.5-.06,11.19-.44-.45c2.18,0,4.36,0,6.54.06l6.58.11Z" style="fill: rgb(235, 235, 235); transform-origin: 440.305px 63.69px;" id="elh3gr0z3may" class="animable"></path><path d="M87.59,55.2l-13.12.28-6.66.11c-2.23,0-4.47,0-6.7.06h-.44V55.2L60.61,44v-.5h.5l13.24.06c4.42,0,8.83.12,13.24.17h.28V44c0,1.9-.09,3.79-.13,5.65Zm0,0-.14-5.65c0-1.87-.11-3.71-.13-5.54l.27.27c-4.41,0-8.82.16-13.24.17l-13.24.06.5-.5,0,11.19-.45-.45c2.18,0,4.36,0,6.55.06l6.58.11Z" style="fill: rgb(235, 235, 235); transform-origin: 74.24px 49.575px;" id="elw8ih1maq6fr" class="animable"></path><path d="M240.33,178.26l-13.12.27-6.66.12c-2.23,0-4.47,0-6.7,0h-.44v-.44l-.05-11.19v-.51h.5l13.24.06c4.41,0,8.83.11,13.24.16h.28v.27c0,1.89-.08,3.78-.13,5.65Zm0,0-.14-5.66c-.05-1.86-.11-3.7-.13-5.53l.27.27c-4.41,0-8.83.16-13.24.16l-13.24.07.5-.5,0,11.19-.45-.45c2.18,0,4.36,0,6.55.06L227,178Z" style="fill: rgb(235, 235, 235); transform-origin: 226.99px 172.58px;" id="elvc6ucxslkm" class="animable"></path><polygon points="51.38 349.8 146.37 349.8 146.37 299.95 51.38 299.95 51.38 299.95 51.38 349.8 51.38 349.8" style="fill: rgb(235, 235, 235); transform-origin: 98.875px 324.875px;" id="el9ileo9wulno" class="animable"></polygon><polygon points="161.08 349.8 146.37 349.8 146.37 334.49 161.08 349.8" style="fill: rgb(235, 235, 235); transform-origin: 153.725px 342.145px;" id="elwwmxwt0j94" class="animable"></polygon><rect x="60.47" y="308.57" width="76.81" height="0.95" style="fill: rgb(255, 255, 255); transform-origin: 98.875px 309.045px;" id="elurz6g9ow69b" class="animable"></rect><rect x="60.47" y="313.68" width="47.63" height="0.95" style="fill: rgb(255, 255, 255); transform-origin: 84.285px 314.155px;" id="elco7occtss8a" class="animable"></rect><rect x="60.47" y="323.92" width="65.25" height="0.95" style="fill: rgb(255, 255, 255); transform-origin: 93.095px 324.395px;" id="elnaiq48u1wfj" class="animable"></rect><rect x="60.47" y="329.03" width="76.81" height="0.95" style="fill: rgb(255, 255, 255); transform-origin: 98.875px 329.505px;" id="elfsldubu28m" class="animable"></rect><rect x="60.47" y="334.15" width="76.81" height="0.95" style="fill: rgb(255, 255, 255); transform-origin: 98.875px 334.625px;" id="eljujfxl23qdf" class="animable"></rect><rect x="60.47" y="339.26" width="37.87" height="0.95" style="fill: rgb(255, 255, 255); transform-origin: 79.405px 339.735px;" id="elkr1vh23x9g" class="animable"></rect><rect x="353.57" y="96.6" width="95" height="43.97" style="fill: rgb(219, 219, 219); transform-origin: 401.07px 118.585px;" id="el4a7hlznxglg" class="animable"></rect><polygon points="338.87 140.56 353.57 140.56 353.57 125.25 338.87 140.56" style="fill: rgb(219, 219, 219); transform-origin: 346.22px 132.905px;" id="elesjutokx9aq" class="animable"></polygon><rect x="362.85" y="119.55" width="68.99" height="0.95" style="fill: rgb(255, 255, 255); transform-origin: 397.345px 120.025px;" id="el8a8ztjzmbte" class="animable"></rect><rect x="362.85" y="124.67" width="58.18" height="0.95" style="fill: rgb(255, 255, 255); transform-origin: 391.94px 125.145px;" id="elbinb3qekjm7" class="animable"></rect><rect x="362.85" y="109.32" width="61.33" height="0.95" style="fill: rgb(255, 255, 255); transform-origin: 393.515px 109.795px;" id="elwxy08a08xf" class="animable"></rect><rect x="362.85" y="104.21" width="75.06" height="0.95" style="fill: rgb(255, 255, 255); transform-origin: 400.38px 104.685px;" id="elzibp0p22wg" class="animable"></rect><rect x="362.85" y="129.79" width="62.51" height="0.95" style="fill: rgb(255, 255, 255); transform-origin: 394.105px 130.265px;" id="elgnu3o8dsfuw" class="animable"></rect><rect x="365.31" y="162.59" width="95" height="28.97" style="fill: rgb(235, 235, 235); transform-origin: 412.81px 177.075px;" id="eluz4a2h0sofj" class="animable"></rect><polygon points="350.61 191.56 365.31 191.56 365.31 176.25 350.61 191.56" style="fill: rgb(235, 235, 235); transform-origin: 357.96px 183.905px;" id="elpxfi8ikdqj" class="animable"></polygon><rect x="374.59" y="170.55" width="68.99" height="0.95" style="fill: rgb(255, 255, 255); transform-origin: 409.085px 171.025px;" id="eluyqxehskrnf" class="animable"></rect><rect x="374.59" y="175.66" width="58.18" height="0.95" style="fill: rgb(255, 255, 255); transform-origin: 403.68px 176.135px;" id="elntdu0u00bjl" class="animable"></rect><rect x="374.59" y="180.78" width="62.51" height="0.95" style="fill: rgb(255, 255, 255); transform-origin: 405.845px 181.255px;" id="elttglfn3k2ch" class="animable"></rect><path d="M412.94,247.86a19,19,0,1,0-2.65-22.16A18.82,18.82,0,0,0,412.94,247.86Z" style="fill: rgb(235, 235, 235); transform-origin: 426.863px 234.954px;" id="elsjo9bnbjqk" class="animable"></path><path d="M421.89,231.32a5.78,5.78,0,1,0,7.11-4A5.77,5.77,0,0,0,421.89,231.32Z" style="fill: rgb(255, 255, 255); transform-origin: 427.453px 232.888px;" id="elxktzrudodhb" class="animable"></path><path d="M413.58,245.56l-.64,2.3a19,19,0,0,0,19.25,5.32l.64-2.29a10,10,0,1,0-19.25-5.33Z" style="fill: rgb(255, 255, 255); transform-origin: 423.14px 245.838px;" id="el8xfj2efj6bm" class="animable"></path><path d="M49.53,283.48a17,17,0,1,1,23,6.88A17,17,0,0,1,49.53,283.48Z" style="fill: rgb(235, 235, 235); transform-origin: 64.4799px 275.387px;" id="elv8xqyquwcy" class="animable"></path><path d="M73.41,275.27c-1.18,5.65-6.31,10.17-6.31,10.17s-6.68-1.43-10.47-5.79c-3.16-3.63-3-8.49,0-10.33,4.31-2.64,7.64,5.2,7.64,5.2s-.93-8.47,4.12-8.28C71.89,266.38,74.38,270.55,73.41,275.27Z" style="fill: rgb(255, 255, 255); transform-origin: 63.9704px 275.838px;" id="elmpap4762jvi" class="animable"></path><g id="freepik--xsrjP0--inject-39" class="animable" style="transform-origin: 120.442px 376.659px;"><path d="M115.67,394.57c-.93-.58-1.74-1.43-3-1.3-.48.05-.37-.35-.38-.61q0-7,0-14.06c0-.34,0-.62.39-.81,3.57-1.81,5.11-5.37,7.29-8.41a14,14,0,0,0,2.56-10.64c-.15-1.06.34-1.53,1.29-1.75a2.36,2.36,0,0,1,2.68.83,19,19,0,0,1,2.06,6.14c.21,1.77-.42,3.5-.63,5.26-.16,1.29-.46,2.56-.7,3.87.32.22.68.1,1,.11l11.87,0c1.67,0,2.49.47,2.73,1.58a3.18,3.18,0,0,1-1.72,3.44c-.29.15-.83,0-.86.48s.52.42.79.61c1.44,1,1.18,3-.48,4.19-.4.28-1.17.15-1.19.73s.72.46,1.05.79c1.16,1.14.59,3.28-1.13,4.14a4.86,4.86,0,0,0-.7.28c-.2.13-.39.28,0,.55,1.72,1.21,1.69,2.92,0,4.17l-.51.37a3.35,3.35,0,0,1-2.09.46c-6.21,0-12.41.05-18.62.07A2.21,2.21,0,0,1,115.67,394.57Z" style="fill: rgb(235, 235, 235); fill-rule: evenodd; transform-origin: 127.585px 375.968px;" id="elrg25tm4ajs9" class="animable"></path><path d="M98,386.37c0-3,0-6,0-8.94,0-.6.06-.9.8-.89q5.44,0,10.89,0c.71,0,.83.24.82.87q0,9,.07,18c0,.76-.2,1-1,1-3.52,0-7,0-10.56.05-.88,0-1-.29-1-1.06C98,392.32,98,389.34,98,386.37Z" style="fill: rgb(235, 235, 235); fill-rule: evenodd; transform-origin: 104.29px 386.5px;" id="el2mj72iwtrin" class="animable"></path></g><g id="freepik--xsrjp0--inject-39" class="animable" style="transform-origin: 146.419px 66.7154px;"><path d="M143.19,78.78c-.63-.39-1.17-1-2-.87-.32,0-.25-.24-.25-.41q0-4.73,0-9.45c0-.23,0-.41.26-.54,2.4-1.22,3.43-3.61,4.9-5.65a9.42,9.42,0,0,0,1.72-7.15c-.1-.71.23-1,.87-1.18a1.58,1.58,0,0,1,1.8.56,12.69,12.69,0,0,1,1.38,4.12,14.64,14.64,0,0,1-.42,3.54c-.11.87-.31,1.72-.47,2.6.21.15.46.07.68.07l8,0c1.12,0,1.67.32,1.83,1.06a2.12,2.12,0,0,1-1.15,2.31c-.2.1-.56,0-.58.32s.35.29.53.41c1,.66.79,2-.32,2.82-.27.18-.79.1-.8.49s.48.31.7.53a1.79,1.79,0,0,1-.76,2.78,3.17,3.17,0,0,0-.46.19c-.14.09-.27.19,0,.37a1.56,1.56,0,0,1,0,2.8l-.35.25a2.23,2.23,0,0,1-1.4.31l-12.51,0A1.46,1.46,0,0,1,143.19,78.78Z" style="fill: rgb(235, 235, 235); fill-rule: evenodd; transform-origin: 151.231px 66.2659px;" id="elgkv96r69bse" class="animable"></path><path d="M131.31,73.27c0-2,0-4,0-6,0-.41,0-.61.54-.6q3.66,0,7.32,0c.48,0,.55.16.55.59q0,6,0,12.08c0,.51-.13.65-.65.65-2.36,0-4.73,0-7.1,0-.58,0-.67-.19-.66-.71C131.34,77.27,131.32,75.27,131.31,73.27Z" style="fill: rgb(235, 235, 235); fill-rule: evenodd; transform-origin: 135.515px 73.3298px;" id="elqfq3qhwi56a" class="animable"></path></g></g><g id="freepik--Shadow--inject-39" class="animable" style="transform-origin: 250px 448.12px;"><ellipse cx="250" cy="448.12" rx="132.49" ry="20.62" style="fill: rgb(235, 235, 235); transform-origin: 250px 448.12px;" id="el98dejtaxv08" class="animable"></ellipse></g><g id="freepik--Plant--inject-39" class="animable" style="transform-origin: 96.685px 323.04px;"><path d="M102.44,347.36a237.83,237.83,0,0,0-.35-25.47,323.9,323.9,0,0,0-8-51.89c-2.22-9.6-5-19-7.82-28.47-.08-.29-.54-.21-.46.09,8.83,33.24,16.07,67.55,15.57,102.11-.13,9.67-1.25,19.17-2.17,28.78,0,.25.4.36.45.09C101.51,364.38,102.1,355.76,102.44,347.36Z" style="fill: rgb(67, 97, 238); transform-origin: 94.2147px 307.053px;" id="el4vxdbrbl2o6" class="animable"></path><path d="M85.83,241.62s-13.37,33.95-10.38,41.93,9.17,9.68,9.17,9.68-8.18,11.68-2.47,22.64,18.43,10.44,19.27,22.86C101.42,338.73,102.13,286.78,85.83,241.62Z" style="fill: rgb(67, 97, 238); transform-origin: 88.2193px 290.175px;" id="el681qk56nr9" class="animable"></path><path d="M100,317.28a.28.28,0,0,0,0-.18,310.46,310.46,0,0,0-13-68.29c0-.06-.13,0-.11,0q4,14.89,7,30a14.65,14.65,0,0,0-6.38-3.56s-.07,0,0,.07a17,17,0,0,1,6.59,4.4q.58,3,1.13,5.91c-3-3.34-7.13-5-11.28-6.57-.06,0-.09.06,0,.09,4.32,1.75,8.62,4,11.55,7.74q1.53,8.46,2.69,17a16.21,16.21,0,0,0-8-4.57c-.09,0-.14.11,0,.14a17,17,0,0,1,8.09,5.18.1.1,0,0,0,0,0c.27,2,.52,4,.75,6a20.78,20.78,0,0,0-5.59-3.37s-.08.06,0,.09A19.08,19.08,0,0,1,99,311l.07,0c.23,1.9.45,3.8.64,5.71a27.18,27.18,0,0,0-11.34-8.1c-.09,0-.13.1,0,.14a29.49,29.49,0,0,1,11.18,8.6.25.25,0,0,0,.28.09c.29,2.92.55,5.84.76,8.77,0,0,.07.05.07,0Q100.34,321.78,100,317.28Z" style="fill: rgb(38, 50, 56); transform-origin: 92.2766px 287.508px;" id="el36nr0q9k3z4" class="animable"></path><path d="M89.22,271.86a16.63,16.63,0,0,0-8-2.51c-.07,0-.07.09,0,.1a31.58,31.58,0,0,1,7.94,2.6A.11.11,0,0,0,89.22,271.86Z" style="fill: rgb(38, 50, 56); transform-origin: 85.2115px 270.7px;" id="el2ddgrcgg9e6" class="animable"></path><path d="M90.85,307.8a16.81,16.81,0,0,0-6-2.07c-.07,0-.08.1,0,.12a22.25,22.25,0,0,1,6,2.09C90.86,308,90.92,307.84,90.85,307.8Z" style="fill: rgb(38, 50, 56); transform-origin: 87.8386px 306.842px;" id="elgatw7jjuxz7" class="animable"></path><path d="M137.6,284.1a90.68,90.68,0,0,0-15.48,13.53A55.57,55.57,0,0,0,111.26,316a137.58,137.58,0,0,0-8.08,44,106.76,106.76,0,0,0,2.38,24.76.23.23,0,0,0,.46-.09,138.68,138.68,0,0,1,.25-43.28c2.3-14.05,5.9-29.33,14.83-40.74C126,294.52,132,289.63,138,284.57,138.33,284.31,137.92,283.87,137.6,284.1Z" style="fill: rgb(67, 97, 238); transform-origin: 120.639px 334.492px;" id="el5mufypaik4v" class="animable"></path><path d="M105.14,350a83.6,83.6,0,0,1,11.29-14.42c6.69-6.69,12.32-11.44,13.19-15.87s-6.7-7.68-6.7-7.68,9.26,1.66,11.79-2.22,3.76-26.39,3.76-26.39-16.84,12-24.69,28.88S105.14,350,105.14,350Z" style="fill: rgb(67, 97, 238); transform-origin: 121.805px 316.71px;" id="elvj24ht60hih" class="animable"></path><path d="M132.64,289.15c-7.08,7-14.22,14.37-18.39,23.52a90.69,90.69,0,0,0-3.72,9.7v0c-.21.66-.43,1.32-.63,2a.49.49,0,0,0,0,.11,191.41,191.41,0,0,0-4.78,20.79c0,.05.06.07.07,0,.72-3.51,1.52-7.06,2.42-10.59l.1,0a14.68,14.68,0,0,1,4.42-1.13c.1,0,.09-.18,0-.18a17.1,17.1,0,0,0-4.37.8c.81-3.19,1.7-6.36,2.7-9.5a47.32,47.32,0,0,1,10-1.3s0-.06,0-.06a37.61,37.61,0,0,0-9.82.84c.17-.54.35-1.08.53-1.61a51.59,51.59,0,0,1,6.65-1.13s0-.07,0-.07a32.37,32.37,0,0,0-6.51.79c.91-2.71,1.9-5.38,3-8a48.53,48.53,0,0,1,3.18-6.17,39.39,39.39,0,0,1,5.4-1,0,0,0,0,0,0-.09,14.55,14.55,0,0,0-5,.49c.89-1.43,1.82-2.83,2.81-4.19h0c3.78-.83,7.61-1.61,11.47-.88.07,0,.09-.1,0-.12-3.68-1-7.33-.41-11,.31.4-.53.81-1.05,1.22-1.57a24.79,24.79,0,0,1,7.06-1.11,0,0,0,0,0,0-.08,18.49,18.49,0,0,0-6.58.58c3.13-3.88,6.58-7.52,10-11.12C132.93,289.08,132.81,289,132.64,289.15Z" style="fill: rgb(38, 50, 56); transform-origin: 119.003px 317.191px;" id="elvhelcksbjtc" class="animable"></path><path d="M132.45,304.49a15.62,15.62,0,0,0-3.35-.12.12.12,0,0,0,0,.24c1.11,0,2.21-.05,3.32,0A.07.07,0,1,0,132.45,304.49Z" style="fill: rgb(38, 50, 56); transform-origin: 130.758px 304.479px;" id="elr82i6zpt0h" class="animable"></path><path d="M120.33,326.32a15.14,15.14,0,0,0-5.19,1s0,.09,0,.08c1.72-.41,3.45-.58,5.18-.86C120.49,326.55,120.48,326.32,120.33,326.32Z" style="fill: rgb(38, 50, 56); transform-origin: 117.792px 326.86px;" id="el6ukdukvkv27" class="animable"></path><path d="M116.7,318.78a11,11,0,0,0-2.21.2.07.07,0,0,0,0,.13,10.89,10.89,0,0,0,2.21-.11C116.83,319,116.83,318.78,116.7,318.78Z" style="fill: rgb(38, 50, 56); transform-origin: 115.622px 318.952px;" id="elko7rpuoc998" class="animable"></path><path d="M55.77,308a76.65,76.65,0,0,1,15.65,7.38,46.5,46.5,0,0,1,13,12.39,115.91,115.91,0,0,1,16.73,33.76A90.26,90.26,0,0,1,105,382.1a.2.2,0,0,1-.39,0,117,117,0,0,0-10.2-35C89.28,336.33,82.83,324.8,73,317.63c-5.37-3.91-11.41-6.46-17.43-9.17C55.23,308.32,55.45,307.87,55.77,308Z" style="fill: rgb(67, 97, 238); transform-origin: 80.1995px 345.116px;" id="elpcao5bpwp2j" class="animable"></path><path d="M97.26,353.78a70.52,70.52,0,0,0-12.47-9.06c-7-3.87-12.62-6.41-14.35-9.79s3.65-7.77,3.65-7.77-7.11,3.49-10,.93S54.9,307.6,54.9,307.6s16.41,5.84,26.66,17.67S97.26,353.78,97.26,353.78Z" style="fill: rgb(67, 97, 238); transform-origin: 76.08px 330.69px;" id="elvzrvqgrgwzs" class="animable"></path><path d="M96.4,350.09c-8.21-15.41-19.16-29.35-34.17-38.55,0,0,0,0,0,0a75.13,75.13,0,0,1,11,8.6A17.34,17.34,0,0,0,64.39,322a0,0,0,0,0,0,.09,24.3,24.3,0,0,1,9.08-1.53.15.15,0,0,0,.1,0c.54.51,1.06,1,1.58,1.54a27.62,27.62,0,0,0-4.71.62s0,.08,0,.07a23.81,23.81,0,0,1,5-.41,102.83,102.83,0,0,1,7.74,8.79,7.84,7.84,0,0,0-3.3.24.06.06,0,0,0,0,.12,18,18,0,0,1,3.52-.05c.45.57.9,1.14,1.34,1.72a31.87,31.87,0,0,0-10,1s0,.09,0,.08a39.88,39.88,0,0,1,10.23-.67l1.22,1.69a21.66,21.66,0,0,0-5.93.68.06.06,0,0,0,0,.12,22.55,22.55,0,0,1,6.13-.48C88.31,338,90,340.48,91.63,343a5.62,5.62,0,0,0-2.61.16,0,0,0,0,0,0,.07,11,11,0,0,1,2.81.14c1.46,2.27,2.88,4.57,4.23,6.88C96.2,350.44,96.51,350.29,96.4,350.09Z" style="fill: rgb(38, 50, 56); transform-origin: 79.3266px 330.939px;" id="el2snq6trxbhb" class="animable"></path><path d="M83.63,337.31a12.6,12.6,0,0,0-4.76.58,0,0,0,1,0,0,.07,35.91,35.91,0,0,1,4.74-.48C83.73,337.47,83.75,337.32,83.63,337.31Z" style="fill: rgb(38, 50, 56); transform-origin: 81.2903px 337.619px;" id="el4usqvf1kff" class="animable"></path><path d="M69.32,318.53a8.12,8.12,0,0,0-2.2.13c-.09,0-.06.14,0,.13.72-.08,1.43-.05,2.15-.07A.1.1,0,0,0,69.32,318.53Z" style="fill: rgb(38, 50, 56); transform-origin: 68.22px 318.648px;" id="el5c6q52ryz58" class="animable"></path><polygon points="118.42 404.73 81.38 404.73 86.66 366.04 88.01 356.12 111.79 356.12 113.14 366.04 118.42 404.73" style="fill: rgb(69, 90, 100); transform-origin: 99.9px 380.425px;" id="elwyv4uxjylbl" class="animable"></polygon><polygon points="113.14 366.04 86.66 366.04 88.01 356.12 111.79 356.12 113.14 366.04" style="fill: rgb(38, 50, 56); transform-origin: 99.9px 361.08px;" id="ellk7nvorxv3q" class="animable"></polygon><rect x="84.61" y="352.68" width="30.58" height="8.4" style="fill: rgb(69, 90, 100); transform-origin: 99.9px 356.88px;" id="elwg3nkb00cwn" class="animable"></rect></g><g id="freepik--Floor--inject-39" class="animable" style="transform-origin: 250px 404.81px;"><polygon points="38.62 404.81 91.46 404.57 144.31 404.48 250 404.31 355.69 404.48 408.54 404.57 461.38 404.81 408.54 405.06 355.69 405.14 250 405.31 144.31 405.14 91.46 405.06 38.62 404.81" style="fill: rgb(38, 50, 56); transform-origin: 250px 404.81px;" id="elzf4pzy7bj18" class="animable"></polygon></g><g id="freepik--Device--inject-39" class="animable" style="transform-origin: 250.005px 264.67px;"><path d="M332,79H168a16.74,16.74,0,0,0-16.59,16.9V433.45A16.75,16.75,0,0,0,168,450.34H332a16.76,16.76,0,0,0,16.6-16.89V95.94A16.75,16.75,0,0,0,332,79Zm6.23,344c0,8.88-6.65,16.07-14.86,16.07H176.67c-8.23,0-14.88-7.19-14.88-16.07V108.73c0-18.1,6.65-19,14.88-19H206c1.71,0,3.11,1.94,3.11,4.34v1c0,5.64,3.08,5.65,6.87,5.65h68c3.82,0,6.87,0,6.87-5.65v-1c0-2.4,1.38-4.34,3.12-4.34h29.38c8.21,0,14.86,2.4,14.86,19Z" style="fill: rgb(38, 50, 56); transform-origin: 250.005px 264.67px;" id="el7nkvnn9b0ti" class="animable"></path><path d="M259.26,93.75H240.73a1.16,1.16,0,0,1-1.15-1.15h0a1.15,1.15,0,0,1,1.15-1.14h18.53a1.14,1.14,0,0,1,1.15,1.14h0A1.15,1.15,0,0,1,259.26,93.75Z" style="fill: rgb(255, 255, 255); transform-origin: 249.995px 92.605px;" id="elcipycijprwh" class="animable"></path><path d="M338.2,108.73V423c0,8.88-6.65,16.07-14.85,16.07H176.67c-8.23,0-14.88-7.19-14.88-16.07V108.73c0-18.1,6.65-19,14.88-19H206c1.71,0,3.11,1.94,3.11,4.34v1c0,5.64,3.08,5.65,6.87,5.65h68c3.82,0,6.88,0,6.88-5.65v-1c0-2.4,1.37-4.34,3.11-4.34h29.39C331.55,89.75,338.2,92.15,338.2,108.73Z" style="fill: rgb(255, 255, 255); transform-origin: 249.995px 264.4px;" id="el9e4wp64uge" class="animable"></path><path d="M338.2,108.73v23.45H161.79V108.73c0-18.1,6.65-19,14.87-19h29.39c1.71,0,3.1,1.94,3.1,4.34v1c0,5.64,3.09,5.65,6.87,5.65h68c3.82,0,6.88,0,6.88-5.65v-1c0-2.4,1.38-4.34,3.11-4.34h29.38C331.55,89.75,338.2,92.15,338.2,108.73Z" style="fill: rgb(67, 97, 238); transform-origin: 249.995px 110.955px;" id="elotd4e1yldql" class="animable"></path><polygon points="179.65 120.73 174.44 115.84 179.65 110.96 180.46 111.82 176.16 115.84 180.46 119.87 179.65 120.73" style="fill: rgb(255, 255, 255); transform-origin: 177.45px 115.845px;" id="eln4wjqw318f" class="animable"></polygon><path d="M325.57,113.83a1,1,0,1,1-1-1A1,1,0,0,1,325.57,113.83Z" style="fill: rgb(255, 255, 255); transform-origin: 324.57px 113.83px;" id="elgh55hntgetg" class="animable"></path><path d="M325.57,117.48a1,1,0,1,1-1-1A1,1,0,0,1,325.57,117.48Z" style="fill: rgb(255, 255, 255); transform-origin: 324.57px 117.48px;" id="elrxfe2vtd6ye" class="animable"></path><path d="M325.57,121.12a1,1,0,1,1-1-1A1,1,0,0,1,325.57,121.12Z" style="fill: rgb(255, 255, 255); transform-origin: 324.57px 121.12px;" id="eljva0sice15h" class="animable"></path><g id="freepik--u5Zjqx--inject-39" class="animable" style="transform-origin: 197.825px 97.6899px;"><path d="M201,96.81l-.29.28-.16.16a3.85,3.85,0,0,0-5.47,0l-.16-.16-.28-.28h0l0,0,.36-.32a3.74,3.74,0,0,1,.83-.52,3.86,3.86,0,0,1,1.1-.37c.18,0,.36,0,.55-.08H198l.37,0a4.37,4.37,0,0,1,1,.24,4.72,4.72,0,0,1,.68.32,5.17,5.17,0,0,1,.66.46l.3.27Z" style="fill: rgb(255, 255, 255); transform-origin: 197.825px 96.385px;" id="ele7vm9hm7rqa" class="animable"></path><path d="M196,98.14l-.45-.44a3.23,3.23,0,0,1,4.57,0l-.45.45a2.6,2.6,0,0,0-3.67,0Z" style="fill: rgb(255, 255, 255); transform-origin: 197.835px 97.4514px;" id="el76hymk30mvw" class="animable"></path><path d="M199.18,98.59l-.44.45a1.34,1.34,0,0,0-1.89,0l-.44-.45A2,2,0,0,1,199.18,98.59Z" style="fill: rgb(255, 255, 255); transform-origin: 197.795px 98.5364px;" id="el5hrak1uudls" class="animable"></path><path d="M198.2,99.44a.41.41,0,1,1-.4-.4A.4.4,0,0,1,198.2,99.44Z" style="fill: rgb(255, 255, 255); transform-origin: 197.79px 99.4499px;" id="elbe9yytuyhe4" class="animable"></path></g><path d="M173.29,97.66a1.17,1.17,0,1,1,1.17,1.17A1.17,1.17,0,0,1,173.29,97.66Z" style="fill: rgb(255, 255, 255); transform-origin: 174.46px 97.66px;" id="eljt2cpc3nxhk" class="animable"></path><path d="M177,97.66a1.17,1.17,0,1,1,1.17,1.17A1.16,1.16,0,0,1,177,97.66Z" style="fill: rgb(255, 255, 255); transform-origin: 178.17px 97.66px;" id="elavcnk94psis" class="animable"></path><path d="M180.66,97.66a1.17,1.17,0,1,1,1.17,1.17A1.16,1.16,0,0,1,180.66,97.66Z" style="fill: rgb(255, 255, 255); transform-origin: 181.83px 97.66px;" id="elgxfsz9ks59d" class="animable"></path><path d="M184.34,97.66a1.17,1.17,0,1,1,1.17,1.17A1.16,1.16,0,0,1,184.34,97.66Z" style="fill: rgb(255, 255, 255); transform-origin: 185.51px 97.66px;" id="el4hxmc4jm812" class="animable"></path><path d="M188,97.66a1.17,1.17,0,1,1,1.17,1.17A1.17,1.17,0,0,1,188,97.66Z" style="fill: rgb(255, 255, 255); transform-origin: 189.17px 97.66px;" id="elp209gfsfg7d" class="animable"></path><path d="M325,100.22h-9.54V95.8H325Zm-9-.5h8.54V96.3h-8.54Z" style="fill: rgb(255, 255, 255); transform-origin: 320.23px 98.01px;" id="el94d1rfh7r9p" class="animable"></path><rect x="316.24" y="96.56" width="6.14" height="2.91" style="fill: rgb(255, 255, 255); transform-origin: 319.31px 98.015px;" id="el4g1ex3mewtl" class="animable"></rect><rect x="324.97" y="96.83" width="0.85" height="2.36" style="fill: rgb(255, 255, 255); transform-origin: 325.395px 98.01px;" id="elvutoozwbwl" class="animable"></rect><polygon points="188.6 419.87 187.25 419.87 187.25 426.03 184.75 426.03 184.75 422.89 180.31 422.89 180.31 426.03 177.8 426.03 177.8 419.87 176.46 419.87 182.53 413.6 188.6 419.87" style="fill: rgb(235, 235, 235); transform-origin: 182.53px 419.815px;" id="elpaazhamvqy" class="animable"></polygon><rect x="308.92" y="413.6" width="14.62" height="2.09" style="fill: rgb(235, 235, 235); transform-origin: 316.23px 414.645px;" id="ell415x01fb9b" class="animable"></rect><rect x="308.92" y="418.77" width="14.62" height="2.09" style="fill: rgb(235, 235, 235); transform-origin: 316.23px 419.815px;" id="elwd6444uefir" class="animable"></rect><rect x="308.92" y="423.94" width="14.62" height="2.09" style="fill: rgb(235, 235, 235); transform-origin: 316.23px 424.985px;" id="elnq2nlcs3yd" class="animable"></rect><polygon points="254.16 418.98 250 423.42 245.84 418.98 246.58 418.3 250 421.95 253.42 418.3 254.16 418.98" style="fill: rgb(235, 235, 235); transform-origin: 250px 420.86px;" id="el67vf499gqao" class="animable"></polygon><path d="M250,428a7.56,7.56,0,1,1,7.55-7.56A7.56,7.56,0,0,1,250,428Zm0-14.11a6.56,6.56,0,1,0,6.55,6.55A6.56,6.56,0,0,0,250,413.9Z" style="fill: rgb(235, 235, 235); transform-origin: 249.99px 420.44px;" id="elclzez1yj04e" class="animable"></path><path d="M234,117.48a4.76,4.76,0,0,1,4.76-4.67,4.91,4.91,0,0,1,3,1,.75.75,0,0,1-.91,1.18,3.23,3.23,0,0,0-2.09-.71,3.43,3.43,0,0,0-2.33.93,3.19,3.19,0,0,0-.95,2.26,3.14,3.14,0,0,0,.95,2.26,3.43,3.43,0,0,0,2.33.93,3.32,3.32,0,0,0,2.09-.71.79.79,0,0,1,1,.14.77.77,0,0,1-.13,1,4.91,4.91,0,0,1-3,1A4.75,4.75,0,0,1,234,117.48Z" style="fill: rgb(255, 255, 255); transform-origin: 237.994px 117.45px;" id="el9w1e2llgq7l" class="animable"></path><path d="M244.43,121.43v-7.65a.7.7,0,0,1,.71-.71.72.72,0,0,1,.73.71v3.11h3.36v-3.11a.7.7,0,0,1,.71-.71.72.72,0,0,1,.73.71v7.65a.72.72,0,0,1-.73.72.7.7,0,0,1-.71-.72v-3.11h-3.36v3.11a.72.72,0,0,1-.73.72A.7.7,0,0,1,244.43,121.43Z" style="fill: rgb(255, 255, 255); transform-origin: 247.55px 117.61px;" id="elq6cbz843wol" class="animable"></path><path d="M257.42,120h-3.16l-.63,1.68a.73.73,0,0,1-.68.46.64.64,0,0,1-.24,0,.73.73,0,0,1-.43-.93l2.87-7.64a.74.74,0,0,1,1.37,0l2.87,7.64a.73.73,0,0,1-.43.93.66.66,0,0,1-.25,0,.7.7,0,0,1-.66-.46Zm-.54-1.43-1-2.79-1.05,2.79Z" style="fill: rgb(255, 255, 255); transform-origin: 255.835px 117.631px;" id="elzmmonointui" class="animable"></path><path d="M265.42,114.51h-2.06v6.92a.7.7,0,0,1-.71.72.72.72,0,0,1-.72-.72v-6.92h-2.05a.72.72,0,0,1-.71-.73.7.7,0,0,1,.71-.71h5.54a.71.71,0,0,1,.72.71A.74.74,0,0,1,265.42,114.51Z" style="fill: rgb(255, 255, 255); transform-origin: 262.655px 117.61px;" id="eljvkhq4mvd8j" class="animable"></path></g><g id="freepik--character-2--inject-39" class="animable" style="transform-origin: 334.545px 282.918px;"><rect x="223.1" y="301.52" width="222.89" height="75.11" style="fill: rgb(67, 97, 238); transform-origin: 334.545px 339.075px;" id="elcfao99qhb3" class="animable"></rect><polygon points="240.88 397.91 240.88 376.63 258.91 376.63 240.88 397.91" style="fill: rgb(67, 97, 238); transform-origin: 249.895px 387.27px;" id="elv95vahurc1g" class="animable"></polygon><rect x="236.53" y="340.73" width="185.24" height="1.62" style="fill: rgb(255, 255, 255); transform-origin: 329.15px 341.54px;" id="elryydjmr322" class="animable"></rect><rect x="236.53" y="349.47" width="169.59" height="1.62" style="fill: rgb(255, 255, 255); transform-origin: 321.325px 350.28px;" id="el0s79n9mk551" class="animable"></rect><rect x="236.53" y="323.26" width="174.15" height="1.62" style="fill: rgb(255, 255, 255); transform-origin: 323.605px 324.07px;" id="el3iqff6c96gg" class="animable"></rect><rect x="236.53" y="314.52" width="194.03" height="1.62" style="fill: rgb(255, 255, 255); transform-origin: 333.545px 315.33px;" id="elntavont7qm" class="animable"></rect><rect x="236.53" y="358.21" width="175.86" height="1.62" style="fill: rgb(255, 255, 255); transform-origin: 324.46px 359.02px;" id="el2cog3q6evyt" class="animable"></rect><path d="M397.41,225.32c-4.73,19.24-16.19,49.13-26.31,49-9.25-.15-29.86-16.54-38.5-21.91s10.74-26.53,15.69-23.11c7.67,5.31,19.16,14.78,21.1,14.16,2.41-.77,5.49-6.72,19.28-24.26C394.31,212,399.42,217.13,397.41,225.32Z" style="fill: rgb(247, 169, 160); transform-origin: 364.133px 245.044px;" id="elxi42a0car2" class="animable"></path><path d="M339,221.12c-4.07-1.44-8.62-3.42-13.15-3.33s-8.28,6.06-8.28,7.77,1.71,12.37,6.24,12.37,1.79-8.19,2-9.13.34-2.14,1.19-2.05,15.79,7.17,15.79,7.17Z" style="fill: rgb(247, 169, 160); transform-origin: 330.18px 227.859px;" id="el8bxjkmxxbfc" class="animable"></path><path d="M338.71,221.74c-.25,0-12.37-4.78-16.9-4.69s-8.28,6.06-8.28,7.77,1.71,12.37,6.23,12.37,1.8-8.19,2-9.13.34-2.14,1.19-2.05,15.79,7.17,15.79,7.17Z" style="fill: rgb(247, 169, 160); transform-origin: 326.135px 227.119px;" id="elb60l5qgwjhu" class="animable"></path><path d="M321.3,236.62a5.34,5.34,0,0,0,.75-2.67,9.36,9.36,0,0,0-.16-2.89,15.17,15.17,0,0,1-.55-2.49,5,5,0,0,1,.63-2.39c.35-.63,1-.42,1.59-.22a24.67,24.67,0,0,1,2.46,1.11c.86.43,1.72.88,2.57,1.32a24,24,0,0,1,2.63,1.45.07.07,0,0,1-.06.12,24.66,24.66,0,0,1-2.29-1l-2.59-1.19c-.81-.36-1.6-.76-2.42-1.11-.28-.12-.86-.43-1.19-.35s-.51.92-.59,1.2a4.23,4.23,0,0,0,.16,2.44,13.06,13.06,0,0,1,.46,2.48,6.47,6.47,0,0,1-.19,2.36,9.51,9.51,0,0,1-1.07,2C321.38,236.8,321.24,236.7,321.3,236.62Z" style="fill: rgb(38, 50, 56); transform-origin: 326.264px 231.275px;" id="elyoo8x9ct6xd" class="animable"></path><path d="M353.06,233.62s-12.53-11.43-15.14-13.7c-5.24-4.55-27.29-13.56-30.36-13.88s-4.18,6,10.78,12.52c7.89,3.45,9.29,8,9.14,10.47s-2.54,7.17-6.75,7.05-6.94-6.26-10.81-6.94-1.31,6.41,1.42,10.51a25.83,25.83,0,0,0,11.33,8.84c3.64,1.37,14.91,6.22,14.91,6.22Z" style="fill: rgb(247, 169, 160); transform-origin: 329.361px 230.369px;" id="elz48yfsl11n" class="animable"></path><path d="M315.51,233.12c1.58,1.23,3.38,2.82,5.47,2.9s3.55-1.32,4.56-3.08a8,8,0,0,0,1.1-5.82,9.78,9.78,0,0,0-2.88-4.72,23.78,23.78,0,0,0-5.71-3.8c-.09,0,0-.18.09-.14,1.93.87,8,3.34,9.17,8.66a8.17,8.17,0,0,1-1.18,5.94c-.93,1.67-2.29,3.29-4.33,3.45-2.49.21-4.63-1.82-6.42-3.33C315.3,233.11,315.42,233.06,315.51,233.12Z" style="fill: rgb(38, 50, 56); transform-origin: 321.401px 227.49px;" id="elt784k1z7qam" class="animable"></path><path d="M353.06,232l-18.75,29.11s29.75,16.67,38.17,14,21.13-26.81,26.37-48-7.76-13.06-12.81-6.52-16,21.67-16.59,21.47S353.06,232,353.06,232Z" style="fill: rgb(69, 90, 100); transform-origin: 367.191px 244.421px;" id="el73hvvc1foae" class="animable"></path><path d="M355.28,271.3c6.78,2.76,13.43,4.77,16.9,3.9l.3-.08c8.42-2.7,21.13-26.82,26.38-48a32.76,32.76,0,0,0,1.2-8.7c0-.11,0-.2,0-.31a4,4,0,0,0-.05-.5,1.36,1.36,0,0,0,0-.21c0-.15,0-.31-.06-.45Z" style="fill: rgb(38, 50, 56); transform-origin: 377.67px 246.178px;" id="el6uf0r7am31l" class="animable"></path><path d="M344.78,258.27q.89-1.54,1.8-3.09c1.21-2.05,8.47-14.25,11.34-18,.08-.1.23,0,.18.12-2,4.26-9.53,16.23-10.79,18.2-.64,1-1.28,2-1.93,3s-1.43,1.94-2.09,2.95a.09.09,0,0,1-.16-.09C343.72,260.4,344.19,259.3,344.78,258.27Z" style="fill: rgb(38, 50, 56); transform-origin: 350.614px 249.318px;" id="elot4ygptd9eg" class="animable"></path><path d="M440.5,301.52H367.15c-.95-1.1,16.49-76.54,24.35-86.58,1.68-2.15,7.16-2.69,11.81-2.06a21.07,21.07,0,0,1,3.58.76l.12,0a8.76,8.76,0,0,1,2.62,1.31c12.84,10.47,23.72,45.65,26.16,56.53A203.7,203.7,0,0,1,440.5,301.52Z" style="fill: rgb(69, 90, 100); transform-origin: 403.806px 257.077px;" id="elj0mw5os2bnm" class="animable"></path><path d="M437.67,280.7a8.92,8.92,0,0,1-1.22.55,6.16,6.16,0,0,1-3.48.19,5.51,5.51,0,0,1-2.9-1.92,22.61,22.61,0,0,1-1.95-2.9c-.32-.54-.64-1.07-1-1.59l-.12-.17a12.9,12.9,0,0,0-.81-1.13,7.57,7.57,0,0,0-2.61-2.2A6.13,6.13,0,0,0,422,271a4.57,4.57,0,0,0-1.69,0,6.11,6.11,0,0,0-3,1.61l-.17.16-.19.19c-1.53,1.48-2.78,3.27-4.18,4.91a15,15,0,0,1-5.38,4.43,8.24,8.24,0,0,1-3.46.66,6.68,6.68,0,0,1-1.77-.24,6,6,0,0,1-1.61-.77,8.85,8.85,0,0,1-2.38-2.61,21.35,21.35,0,0,1-1.58-3.13c-.9-2.16-1.59-4.38-2.33-6.58-.57-1.69-1.15-3.37-1.87-5l-.15-.33c-.17-.38-.36-.76-.55-1.13a13.94,13.94,0,0,0-1.93-2.86,7,7,0,0,0-2.79-1.93,7.86,7.86,0,0,0-6.61.8,19,19,0,0,0-4.78,5l-.34.45c0-.14.08-.28.11-.43l.09-.12a18.76,18.76,0,0,1,4.82-5,8,8,0,0,1,6.78-.85,7.34,7.34,0,0,1,2.9,2,14.72,14.72,0,0,1,2,2.9c.17.31.32.63.47.95l.15.32a54.55,54.55,0,0,1,2,5.2c.75,2.2,1.45,4.42,2.35,6.55a20.27,20.27,0,0,0,1.57,3.08,8.57,8.57,0,0,0,2.29,2.5,5.23,5.23,0,0,0,1.52.74,6.67,6.67,0,0,0,1.67.24,8.13,8.13,0,0,0,3.34-.62,14.85,14.85,0,0,0,5.29-4.33,63.65,63.65,0,0,1,4.22-4.92,1.07,1.07,0,0,1,.19-.18,1.37,1.37,0,0,1,.17-.17,6.33,6.33,0,0,1,3.1-1.65,4.79,4.79,0,0,1,1.77,0,6.62,6.62,0,0,1,1.68.55,7.89,7.89,0,0,1,2.67,2.26,13.58,13.58,0,0,1,.83,1.16l.12.17c.34.53.65,1.07,1,1.6a20.9,20.9,0,0,0,1.92,2.88,5.35,5.35,0,0,0,2.8,1.88,6,6,0,0,0,3.4-.15,7.16,7.16,0,0,0,1.24-.54A.52.52,0,0,1,437.67,280.7Zm-3.89-16.82c-.57,1.21-1.07,2.46-1.59,3.68a18.57,18.57,0,0,1-3.45,6,7.31,7.31,0,0,1-1.54,1.23l-.18.11a7.73,7.73,0,0,1-4.5,1,7,7,0,0,1-3.18-1.21,11.79,11.79,0,0,1-2.19-1.92,1.41,1.41,0,0,1-.17-.18,1.8,1.8,0,0,1-.19-.2,44.26,44.26,0,0,1-4-5.65l-.84-1.33-.18-.28c-.9-1.43-1.81-2.85-2.82-4.22a20.73,20.73,0,0,0-2.29-2.66,8.72,8.72,0,0,0-2.93-2,5.52,5.52,0,0,0-1.75-.36,6.53,6.53,0,0,0-1.77.18,8.31,8.31,0,0,0-3.21,1.47c-.19.14-.37.29-.55.45l-.22.2a16.6,16.6,0,0,0-3.39,4.94c-.14.28-.28.56-.4.84-.06.1-.1.2-.15.3a37.69,37.69,0,0,1-2.6,5.06,6.18,6.18,0,0,1-2.49,2.27,4.9,4.9,0,0,1-1.65.38,6.54,6.54,0,0,1-1.71-.12,7.73,7.73,0,0,1-3.05-1.51A25.72,25.72,0,0,1,378.2,268a21.38,21.38,0,0,0-2.59-2.35,5.07,5.07,0,0,0-.54-.36,1.21,1.21,0,0,1-.05.18l.48.33a21,21,0,0,1,2.56,2.34,27.52,27.52,0,0,0,2.56,2.38,8,8,0,0,0,3.14,1.56,6.93,6.93,0,0,0,1.76.13,5.13,5.13,0,0,0,1.73-.39,6.44,6.44,0,0,0,2.61-2.35,34.16,34.16,0,0,0,2.54-4.87l.15-.31c.16-.35.33-.69.5-1a16.87,16.87,0,0,1,3.23-4.74l.23-.21c.21-.18.42-.36.64-.52a8,8,0,0,1,3.09-1.4,6.4,6.4,0,0,1,1.68-.17,5.18,5.18,0,0,1,1.65.35,8.55,8.55,0,0,1,2.82,1.88,20.23,20.23,0,0,1,2.27,2.61c1,1.36,1.94,2.79,2.85,4.24l.18.27c.27.43.54.86.82,1.29a45.1,45.1,0,0,0,4.08,5.66l.2.21.17.19a13.4,13.4,0,0,0,2.25,1.94,7.21,7.21,0,0,0,3.28,1.23,8,8,0,0,0,4.65-1.08l.18-.11a7.56,7.56,0,0,0,1.56-1.26,19.06,19.06,0,0,0,3.47-6c.49-1.19.95-2.39,1.49-3.56Zm-3.72-11.62a8.11,8.11,0,0,0-2-.39,7.24,7.24,0,0,0-3.43.73,13.63,13.63,0,0,0-2.93,1.93,44.3,44.3,0,0,0-4.89,5c-1.53,1.75-3,3.53-4.67,5.16l-.45.43a2.13,2.13,0,0,1-.22.21,17.54,17.54,0,0,1-1.95,1.61,8.77,8.77,0,0,1-3.08,1.44,5.58,5.58,0,0,1-1.68.1,6.82,6.82,0,0,1-1.64-.42,8.12,8.12,0,0,1-2.84-1.85,14.82,14.82,0,0,1-3.25-6c-.2-.61-.38-1.23-.56-1.85,0-.11-.07-.21-.1-.32a28.59,28.59,0,0,0-1.57-4.44,6.4,6.4,0,0,0-2.23-2.71,4.89,4.89,0,0,0-1.65-.64,6.94,6.94,0,0,0-1.76-.14,8,8,0,0,0-3.34,1.08,25.78,25.78,0,0,0-2.88,2,23,23,0,0,1-2.88,1.93,5.93,5.93,0,0,1-2.56.72.84.84,0,0,1-.05.17,5.85,5.85,0,0,0,2.69-.73,22,22,0,0,0,2.91-1.94,28.44,28.44,0,0,1,2.87-1.95,7.91,7.91,0,0,1,3.25-1,6.94,6.94,0,0,1,1.7.14,4.7,4.7,0,0,1,1.58.62,6.23,6.23,0,0,1,2.13,2.62,30.29,30.29,0,0,1,1.57,4.53l.09.33c.17.58.34,1.16.53,1.73a15.16,15.16,0,0,0,3.28,6.15,8.21,8.21,0,0,0,3,1.93,6.71,6.71,0,0,0,1.72.45,6,6,0,0,0,1.79-.1,8.77,8.77,0,0,0,3.19-1.51,16.49,16.49,0,0,0,1.94-1.6l.22-.2.49-.49c1.65-1.65,3.14-3.44,4.66-5.19a45.66,45.66,0,0,1,4.84-5,14,14,0,0,1,2.87-1.9,7,7,0,0,1,3.32-.72,7.35,7.35,0,0,1,2.06.43Z" style="fill: rgb(255, 255, 255); transform-origin: 406.36px 266.532px;" id="elm4eup6hw6ia" class="animable"></path><path d="M416.19,234.41c-3.34,19.61-19.8,56.29-30.53,59.74-12.41,4-55.52-9.78-64-16-3.37-2.46,14.58-24.18,18.77-22.64,17.55,6.46,33.11,9.77,35.37,8.24,3.47-2.36,17.63-22.65,26.84-35.24C414.22,212.72,417.69,225.61,416.19,234.41Z" style="fill: rgb(247, 169, 160); transform-origin: 368.88px 257.964px;" id="elfrpqsmzz8fe" class="animable"></path><path d="M322.79,278.76c-1.92-.68-15.12-10.27-19-14.76a57.64,57.64,0,0,1-10.15-15.74c-3.92-9.13-5.76-15.8-4.82-18.8,1.1-3.47,1.41-4,10.54,11.11,5.16,8.56,10.09,9.53,14.36,9.45A65.71,65.71,0,0,1,344,256.8S330.17,281.39,322.79,278.76Z" style="fill: rgb(247, 169, 160); transform-origin: 316.289px 253.198px;" id="el1k1ybdnuh3l" class="animable"></path><path d="M324,242.61l-16.23,6.8a2.66,2.66,0,0,1-2.86-.76l-24.34-28.86a1.27,1.27,0,0,1,.42-2.13l16.24-6.8a2.65,2.65,0,0,1,2.86.75l24.34,28.86A1.28,1.28,0,0,1,324,242.61Z" style="fill: rgb(69, 90, 100); transform-origin: 302.498px 230.133px;" id="elksjejjb2fv" class="animable"></path><path d="M298.52,210.32l-16.23,6.8a1.27,1.27,0,0,0-.43,2.13l24.34,28.87a2.68,2.68,0,0,0,2.86.75l16.24-6.8a1.28,1.28,0,0,0,.42-2.14l-24.34-28.86A2.65,2.65,0,0,0,298.52,210.32Zm25.42,29.15a1.18,1.18,0,0,1-.31,2l-14.52,6.09a2.46,2.46,0,0,1-2.63-.76l-22.67-26.87c-1.3-1.55-.71-1.9.11-2.24l2.91-1.22a.64.64,0,0,1,.62.24l.07.09c.41.48.71.36,1.09.2l6.73-2.82c.38-.16.68-.29.27-.77l-.07-.09c-.18-.21-.18-.43,0-.5l2.91-1.22c.81-.34,1.64-.41,2.84,1Z" style="fill: rgb(38, 50, 56); transform-origin: 303.791px 229.593px;" id="eldngzldcz67b" class="animable"></path><path d="M292.38,214.59l-1.83.77a.19.19,0,0,1-.2-.05h0a.1.1,0,0,1,0-.15l1.84-.76a.16.16,0,0,1,.19,0h0A.08.08,0,0,1,292.38,214.59Z" style="fill: rgb(255, 255, 255); transform-origin: 291.396px 214.869px;" id="elhtv2jecsuxs" class="animable"></path><line x1="305.04" y1="245.09" x2="304.98" y2="245.11" style="fill: none; transform-origin: 305.01px 245.1px;" id="elj1azg624c2" class="animable"></line><path d="M301.28,212.6l22.66,26.87a1.18,1.18,0,0,1-.31,2l-14.52,6.09a2.46,2.46,0,0,1-2.63-.76l-22.67-26.87c-1.3-1.55-.71-1.9.11-2.24l2.91-1.22a.63.63,0,0,1,.62.24l.07.09c.41.48.71.36,1.09.2l6.73-2.82c.38-.16.68-.29.27-.77l-.07-.09c-.18-.21-.18-.43,0-.5l2.91-1.22C299.25,211.25,300.08,211.18,301.28,212.6Z" style="fill: rgb(255, 255, 255); transform-origin: 303.707px 229.532px;" id="elv7t8qiw1qpi" class="animable"></path><path d="M301.28,212.6l1.69,2-17.47,7.32-1.69-2c-1.3-1.55-.71-1.9.11-2.24l2.91-1.22a.61.61,0,0,1,.62.24l.07.09c.41.48.72.35,1.09.2l6.73-2.82c.38-.16.68-.29.27-.77l-.07-.09c-.18-.21-.18-.43,0-.5l2.91-1.22C299.25,211.25,300.08,211.18,301.28,212.6Z" style="fill: rgb(67, 97, 238); transform-origin: 293.01px 216.652px;" id="elqiquyjbegch" class="animable"></path><polygon points="286.45 220.2 285.58 220 285.74 219.37 285.88 219.41 285.75 219.93 286.46 220.1 286.45 220.2" style="fill: rgb(255, 255, 255); transform-origin: 286.02px 219.785px;" id="ellx4ow1ckgwe" class="animable"></polygon><path d="M300.4,213.56a.08.08,0,0,1,0,.13.17.17,0,0,1-.18-.05.08.08,0,0,1,0-.13A.17.17,0,0,1,300.4,213.56Z" style="fill: rgb(255, 255, 255); transform-origin: 300.31px 213.6px;" id="elgiqgsztlbne" class="animable"></path><path d="M300.66,213.87a.08.08,0,0,1,0,.13.16.16,0,0,1-.17-.05.08.08,0,0,1,0-.13A.17.17,0,0,1,300.66,213.87Z" style="fill: rgb(255, 255, 255); transform-origin: 300.575px 213.911px;" id="el4a5j4a6iimp" class="animable"></path><path d="M300.92,214.18a.08.08,0,0,1,0,.13.19.19,0,0,1-.18,0,.08.08,0,0,1,0-.13A.14.14,0,0,1,300.92,214.18Z" style="fill: rgb(255, 255, 255); transform-origin: 300.83px 214.24px;" id="el7cpilue8fr2" class="animable"></path><g id="freepik--u5zjqx--inject-39" class="animable" style="transform-origin: 286.52px 217.45px;"><path d="M286.83,217.27v.06a.59.59,0,0,0-.35,0,.3.3,0,0,0-.19.22h-.08s0,0,0,0l0-.08a.6.6,0,0,1,.08-.08l.05,0,.05,0h0l.12,0h.23Z" style="fill: rgb(255, 255, 255); transform-origin: 286.52px 217.41px;" id="elf9r5na7ohu7" class="animable"></path><path d="M286.43,217.59l-.07,0a.23.23,0,0,1,.11-.15.44.44,0,0,1,.34,0v.06a.39.39,0,0,0-.24,0A.22.22,0,0,0,286.43,217.59Z" style="fill: rgb(255, 255, 255); transform-origin: 286.585px 217.498px;" id="el2g1dcflckn8" class="animable"></path><path d="M286.78,217.5v.06a.17.17,0,0,0-.12,0s-.06,0-.06.07l-.08,0A.2.2,0,0,1,286.78,217.5Z" style="fill: rgb(255, 255, 255); transform-origin: 286.65px 217.559px;" id="ele1ws4l3ur5a" class="animable"></path><path d="M286.75,217.61s0,0,0,0-.06,0-.07,0a0,0,0,0,1,0-.06A.1.1,0,0,1,286.75,217.61Z" style="fill: rgb(255, 255, 255); transform-origin: 286.715px 217.58px;" id="elsmok4e5viii" class="animable"></path></g><path d="M284.15,218.49a.08.08,0,0,1,0-.14.17.17,0,0,1,.2.05.09.09,0,0,1,0,.15A.2.2,0,0,1,284.15,218.49Z" style="fill: rgb(255, 255, 255); transform-origin: 284.249px 218.446px;" id="eltmovpif66p" class="animable"></path><path d="M284.52,218.34a.09.09,0,0,1,0-.15.21.21,0,0,1,.2.05.09.09,0,0,1,0,.15A.17.17,0,0,1,284.52,218.34Z" style="fill: rgb(255, 255, 255); transform-origin: 284.62px 218.293px;" id="el25nsxqjki67" class="animable"></path><path d="M284.88,218.19a.09.09,0,0,1,0-.15.18.18,0,0,1,.2.05c.05.06,0,.12,0,.15A.19.19,0,0,1,284.88,218.19Z" style="fill: rgb(255, 255, 255); transform-origin: 284.971px 218.139px;" id="elbm1xsk2rym4" class="animable"></path><path d="M285.25,218a.09.09,0,0,1,0-.15.17.17,0,0,1,.2.05.09.09,0,0,1,0,.15A.2.2,0,0,1,285.25,218Z" style="fill: rgb(255, 255, 255); transform-origin: 285.35px 217.947px;" id="elyve2kn83dj" class="animable"></path><path d="M285.61,217.88a.1.1,0,0,1,0-.15.19.19,0,0,1,.2.06.08.08,0,0,1,0,.14A.17.17,0,0,1,285.61,217.88Z" style="fill: rgb(255, 255, 255); transform-origin: 285.714px 217.833px;" id="elo80h9521cz" class="animable"></path><polygon points="298.35 213.08 297.73 212.35 299.1 211.77 299.73 212.51 298.35 213.08" style="fill: rgb(255, 255, 255); transform-origin: 298.73px 212.425px;" id="elzluj8smmgi" class="animable"></polygon><polygon points="298.83 212.21 298.23 212.47 298.44 212.72 299.05 212.46 298.83 212.21" style="fill: rgb(255, 255, 255); transform-origin: 298.64px 212.465px;" id="elels9sqfyics" class="animable"></polygon><polygon points="299.37 212.29 299.28 212.33 299.11 212.13 299.2 212.09 299.37 212.29" style="fill: rgb(255, 255, 255); transform-origin: 299.24px 212.21px;" id="elktiz7sy17tn" class="animable"></polygon><polygon points="308.9 245.41 308.77 245.47 309.21 245.99 308.97 246.1 308.74 245.83 308.3 246.01 308.53 246.28 308.28 246.39 307.83 245.86 307.7 245.91 307.85 245.13 308.9 245.41" style="fill: rgb(235, 235, 235); transform-origin: 308.455px 245.76px;" id="elgm1dvhbx7hf" class="animable"></polygon><polygon points="321.96 239.45 320.52 240.06 320.37 239.88 321.81 239.28 321.96 239.45" style="fill: rgb(235, 235, 235); transform-origin: 321.165px 239.67px;" id="elrnozgpre7h" class="animable"></polygon><polygon points="322.34 239.9 320.89 240.5 320.74 240.32 322.19 239.72 322.34 239.9" style="fill: rgb(235, 235, 235); transform-origin: 321.54px 240.11px;" id="elcszt8c4kkbb" class="animable"></polygon><polygon points="322.71 240.34 321.26 240.94 321.11 240.77 322.56 240.16 322.71 240.34" style="fill: rgb(235, 235, 235); transform-origin: 321.91px 240.55px;" id="elxxkavq90qr" class="animable"></polygon><polygon points="315.33 242.62 315.24 243.17 314.51 242.96 314.53 242.87 315.13 243.04 315.21 242.59 315.33 242.62" style="fill: rgb(235, 235, 235); transform-origin: 314.92px 242.88px;" id="elt6do1rcrpkl" class="animable"></polygon><path d="M315.17,244.09a1.65,1.65,0,0,1-1.22-.56,1,1,0,0,1,.37-1.68,1.6,1.6,0,0,1,1.79.45,1.09,1.09,0,0,1,.25,1,1.05,1.05,0,0,1-.63.72A1.51,1.51,0,0,1,315.17,244.09Zm-.3-1.35a.41.41,0,0,0-.16,0s0,.07,0,.11a.63.63,0,0,0,.63.18c.05,0,0-.07,0-.12h0A.66.66,0,0,0,314.87,242.74Z" style="fill: rgb(235, 235, 235); transform-origin: 315.013px 242.918px;" id="elw8zi0n1qykr" class="animable"></path><path d="M291.6,217.67a.36.36,0,0,1,.13-.6.66.66,0,0,1,.37,0,.11.11,0,0,1,.09.09s-.05.06-.1,0a.43.43,0,0,0-.25,0,.28.28,0,0,0-.17.17.32.32,0,0,0,.07.24.53.53,0,0,0,.26.15.51.51,0,0,0,.3,0,.23.23,0,0,0,.15-.14.09.09,0,0,1,.12,0,.08.08,0,0,1,.06.09.4.4,0,0,1-.23.21A.74.74,0,0,1,291.6,217.67Z" style="fill: rgb(255, 255, 255); transform-origin: 292.06px 217.482px;" id="elftyjlhnvgkr" class="animable"></path><path d="M292.91,217.57l-.55-.65a.05.05,0,0,1,0-.09.11.11,0,0,1,.12,0l.23.27.33-.14-.23-.27a.06.06,0,0,1,0-.09.13.13,0,0,1,.13,0l.55.66a.05.05,0,0,1,0,.09.13.13,0,0,1-.12,0l-.23-.27-.33.14.22.27a.05.05,0,0,1,0,.09A.11.11,0,0,1,292.91,217.57Z" style="fill: rgb(255, 255, 255); transform-origin: 292.925px 217.088px;" id="el6v3kbjhk6nw" class="animable"></path><path d="M294.09,216.91l-.31.13.06.18a0,0,0,0,1,0,.06h0a.12.12,0,0,1-.11-.06l-.27-.78s0,0,0-.06a.09.09,0,0,1,.1,0l.83.53s.06.07,0,.1h0a.09.09,0,0,1-.1,0Zm-.15-.1-.31-.19.1.28Z" style="fill: rgb(255, 255, 255); transform-origin: 293.938px 216.822px;" id="el7hwct5xwrz7" class="animable"></path><path d="M294.49,216.11l-.2.09.5.59a.05.05,0,0,1,0,.09.13.13,0,0,1-.13,0l-.49-.59-.21.08a.11.11,0,0,1-.12,0s0-.08,0-.09l.55-.23a.11.11,0,0,1,.12,0A.05.05,0,0,1,294.49,216.11Z" style="fill: rgb(255, 255, 255); transform-origin: 294.329px 216.465px;" id="el9vopkimds3c" class="animable"></path><polygon points="296.87 232.34 309.37 227.11 306.51 223.72 294.02 228.95 294.02 228.95 296.87 232.34 296.87 232.34" style="fill: rgb(69, 90, 100); transform-origin: 301.695px 228.03px;" id="elakzcc38ky8q" class="animable"></polygon><polygon points="310.52 226.62 309.37 227.11 308.49 226.07 310.52 226.62" style="fill: rgb(69, 90, 100); transform-origin: 309.505px 226.59px;" id="eln0a2gff2bi" class="animable"></polygon><polygon points="306.34 224.67 295.28 229.31 295.23 229.24 306.29 224.6 306.34 224.67" style="fill: rgb(255, 255, 255); transform-origin: 300.785px 226.955px;" id="eloatk7chqica" class="animable"></polygon><polygon points="304.34 225.98 295.57 229.65 295.52 229.59 304.29 225.91 304.34 225.98" style="fill: rgb(255, 255, 255); transform-origin: 299.93px 227.78px;" id="elhgvzydhsjap" class="animable"></polygon><polygon points="306.31 226.09 296.16 230.35 296.11 230.28 306.26 226.03 306.31 226.09" style="fill: rgb(255, 255, 255); transform-origin: 301.21px 228.19px;" id="elfnv6kh9q6kt" class="animable"></polygon><polygon points="307.51 226.06 296.45 230.69 296.4 230.63 307.46 226 307.51 226.06" style="fill: rgb(255, 255, 255); transform-origin: 301.955px 228.345px;" id="elbtyihpd225" class="animable"></polygon><polygon points="307.81 226.41 296.75 231.04 296.69 230.98 307.75 226.34 307.81 226.41" style="fill: rgb(255, 255, 255); transform-origin: 302.25px 228.69px;" id="el57ubzy4oy4u" class="animable"></polygon><polygon points="305.04 228.04 297.04 231.39 296.99 231.33 304.98 227.97 305.04 228.04" style="fill: rgb(255, 255, 255); transform-origin: 301.015px 229.68px;" id="el4hpb93dkucg" class="animable"></polygon><polygon points="303.62 240.34 316.11 235.11 313.26 231.72 300.76 236.96 300.76 236.96 303.62 240.34 303.62 240.34" style="fill: rgb(69, 90, 100); transform-origin: 308.435px 236.03px;" id="el0w8szaeiy3sj" class="animable"></polygon><polygon points="317.27 234.62 316.11 235.11 315.24 234.07 317.27 234.62" style="fill: rgb(69, 90, 100); transform-origin: 316.255px 234.59px;" id="el9qte9rcmcdn" class="animable"></polygon><polygon points="313.09 232.67 302.03 237.31 301.97 237.24 313.04 232.6 313.09 232.67" style="fill: rgb(255, 255, 255); transform-origin: 307.53px 234.955px;" id="eli8x66y1f2t" class="animable"></polygon><polygon points="311.09 233.98 302.32 237.65 302.27 237.59 311.03 233.91 311.09 233.98" style="fill: rgb(255, 255, 255); transform-origin: 306.68px 235.78px;" id="el68cj48snd9v" class="animable"></polygon><polygon points="313.06 234.09 302.91 238.35 302.85 238.28 313 234.03 313.06 234.09" style="fill: rgb(255, 255, 255); transform-origin: 307.955px 236.19px;" id="elx0nqcp3imlm" class="animable"></polygon><polygon points="314.26 234.06 303.2 238.69 303.15 238.63 314.21 234 314.26 234.06" style="fill: rgb(255, 255, 255); transform-origin: 308.705px 236.345px;" id="elxhestco1obe" class="animable"></polygon><polygon points="314.56 234.41 303.49 239.04 303.44 238.98 314.5 234.34 314.56 234.41" style="fill: rgb(255, 255, 255); transform-origin: 309px 236.69px;" id="el9235wlpap26" class="animable"></polygon><polygon points="311.78 236.04 303.79 239.39 303.73 239.33 311.73 235.97 311.78 236.04" style="fill: rgb(255, 255, 255); transform-origin: 307.755px 237.68px;" id="el02s57b0bj56c" class="animable"></polygon><polygon points="304.83 219.87 292.34 225.11 289.93 222.25 302.42 217.01 304.83 219.87" style="fill: rgb(67, 97, 238); transform-origin: 297.38px 221.06px;" id="elpoa8g0wpdd" class="animable"></polygon><polygon points="291.18 225.59 292.34 225.11 291.46 224.07 291.18 225.59" style="fill: rgb(67, 97, 238); transform-origin: 291.76px 224.83px;" id="elq6lgmnb56la" class="animable"></polygon><polygon points="300.37 218.68 291.16 222.54 291.1 222.47 300.32 218.61 300.37 218.68" style="fill: rgb(255, 255, 255); transform-origin: 295.735px 220.575px;" id="elk70f729zjp" class="animable"></polygon><polygon points="302.51 218.25 291.45 222.88 291.4 222.82 302.46 218.18 302.51 218.25" style="fill: rgb(255, 255, 255); transform-origin: 296.955px 220.53px;" id="el1rs7a16cffs" class="animable"></polygon><polygon points="302.81 218.59 291.75 223.23 291.69 223.17 302.75 218.53 302.81 218.59" style="fill: rgb(255, 255, 255); transform-origin: 297.25px 220.88px;" id="elytgrx1mmxn8" class="animable"></polygon><polygon points="302.22 219.31 292.04 223.58 291.98 223.51 302.17 219.25 302.22 219.31" style="fill: rgb(255, 255, 255); transform-origin: 297.1px 221.415px;" id="el6wkq3w18kph" class="animable"></polygon><polygon points="303.39 219.29 292.33 223.93 292.28 223.86 303.34 219.23 303.39 219.29" style="fill: rgb(255, 255, 255); transform-origin: 297.835px 221.58px;" id="elkmqrr6t9sz" class="animable"></polygon><polygon points="300.8 220.85 292.62 224.27 292.57 224.21 300.74 220.78 300.8 220.85" style="fill: rgb(255, 255, 255); transform-origin: 296.685px 222.525px;" id="elxv0hj59l8ib" class="animable"></polygon><polygon points="307.01 222.45 294.52 227.69 292.73 225.57 305.22 220.34 307.01 222.45" style="fill: rgb(67, 97, 238); transform-origin: 299.87px 224.015px;" id="el9zy9zc0gfle" class="animable"></polygon><polygon points="293.36 228.18 294.52 227.69 293.64 226.65 293.36 228.18" style="fill: rgb(67, 97, 238); transform-origin: 293.94px 227.415px;" id="elhkq1106vonm" class="animable"></polygon><polygon points="305 221.23 293.96 225.86 293.9 225.79 304.95 221.16 305 221.23" style="fill: rgb(255, 255, 255); transform-origin: 299.45px 223.51px;" id="el8c8rh3fmap8" class="animable"></polygon><polygon points="303.34 222.4 294.25 226.2 294.2 226.14 303.29 222.33 303.34 222.4" style="fill: rgb(255, 255, 255); transform-origin: 298.77px 224.265px;" id="elq9gqlzw1nlr" class="animable"></polygon><polygon points="304.55 222.36 294.55 226.55 294.49 226.49 304.49 222.3 304.55 222.36" style="fill: rgb(255, 255, 255); transform-origin: 299.52px 224.425px;" id="elhs71e3yqeo7" class="animable"></polygon><polygon points="302.55 223.67 294.84 226.9 294.78 226.84 302.5 223.6 302.55 223.67" style="fill: rgb(255, 255, 255); transform-origin: 298.665px 225.25px;" id="el5ymxka3y0xc" class="animable"></polygon><polygon points="313.74 230.44 301.25 235.67 298.73 232.69 311.22 227.45 313.74 230.44" style="fill: rgb(219, 219, 219); transform-origin: 306.235px 231.56px;" id="el6b0mhn3bkvr" class="animable"></polygon><polygon points="300.09 236.16 301.25 235.67 300.37 234.63 300.09 236.16" style="fill: rgb(219, 219, 219); transform-origin: 300.67px 235.395px;" id="elnlubrjb180s" class="animable"></polygon><polygon points="311.28 229.63 300.83 234 300.78 233.94 311.22 229.56 311.28 229.63" style="fill: rgb(255, 255, 255); transform-origin: 306.03px 231.78px;" id="elqjc6w0da5" class="animable"></polygon><polygon points="310.72 230.33 301.12 234.35 301.07 234.29 310.67 230.27 310.72 230.33" style="fill: rgb(255, 255, 255); transform-origin: 305.895px 232.31px;" id="elhy2m27pn9jq" class="animable"></polygon><polygon points="310.09 229.18 300.24 233.31 300.19 233.25 310.03 229.12 310.09 229.18" style="fill: rgb(255, 255, 255); transform-origin: 305.14px 231.215px;" id="elg92oyi9e7fl" class="animable"></polygon><polygon points="310.87 228.38 299.95 232.96 299.9 232.9 310.82 228.32 310.87 228.38" style="fill: rgb(255, 255, 255); transform-origin: 305.385px 230.64px;" id="elm7va3s8fr6j" class="animable"></polygon><polygon points="311.35 230.54 301.42 234.7 301.36 234.64 311.3 230.47 311.35 230.54" style="fill: rgb(255, 255, 255); transform-origin: 306.355px 232.585px;" id="elcsmtnv2i8vl" class="animable"></polygon><polygon points="320.11 237.99 307.62 243.23 305.52 240.74 318.01 235.5 320.11 237.99" style="fill: rgb(67, 97, 238); transform-origin: 312.815px 239.365px;" id="elf8vog3rzz56" class="animable"></polygon><polygon points="306.46 243.71 307.62 243.23 306.74 242.19 306.46 243.71" style="fill: rgb(67, 97, 238); transform-origin: 307.04px 242.95px;" id="elhygrewvur0r" class="animable"></polygon><polygon points="317.79 236.37 306.73 241 306.68 240.94 317.74 236.3 317.79 236.37" style="fill: rgb(255, 255, 255); transform-origin: 312.235px 238.65px;" id="elscfzdrnwqgb" class="animable"></polygon><polygon points="318.09 236.72 307.02 241.35 306.97 241.29 318.03 236.65 318.09 236.72" style="fill: rgb(255, 255, 255); transform-origin: 312.53px 239px;" id="elhx32p38fkks" class="animable"></polygon><polygon points="317.5 237.43 307.32 241.7 307.26 241.63 317.45 237.37 317.5 237.43" style="fill: rgb(255, 255, 255); transform-origin: 312.38px 239.535px;" id="el64qldsekhth" class="animable"></polygon><polygon points="318.67 237.41 307.61 242.05 307.56 241.98 318.62 237.35 318.67 237.41" style="fill: rgb(255, 255, 255); transform-origin: 313.115px 239.7px;" id="ela24nr05730p" class="animable"></polygon><polygon points="316.08 238.97 307.9 242.39 307.85 242.33 316.02 238.9 316.08 238.97" style="fill: rgb(255, 255, 255); transform-origin: 311.965px 240.645px;" id="el74btk14suqs" class="animable"></polygon><path d="M311.58,250c4.41.06-9.93-8.89-10.15-13.91s4.68-3.44,8.53-.6c13.39,9.83,23.5,9.35,30.28,18.76S311.58,250,311.58,250Z" style="fill: rgb(247, 169, 160); transform-origin: 321.262px 245.194px;" id="ele4nf4eqw42d" class="animable"></path><path d="M324.91,243.83a34.85,34.85,0,0,1,8.25,3.23,21.41,21.41,0,0,1,6,5.58c.08.09-.05.22-.13.13-3.62-4.45-9-6.67-14.11-8.82C324.8,243.92,324.83,243.8,324.91,243.83Z" style="fill: rgb(38, 50, 56); transform-origin: 332.012px 248.313px;" id="elhpmfv66wo25" class="animable"></path><path d="M374.88,262.56c-3.43.93-27.33-5.63-27.33-5.63L334.12,289.4s41.61,9.69,51.33,6.33,24.83-36.37,29.72-55.55c4.6-18-1.53-29.79-14.4-11.11C400.77,229.07,376.67,262.07,374.88,262.56Z" style="fill: rgb(69, 90, 100); transform-origin: 375.405px 258.024px;" id="el7pmzo3dw03u" class="animable"></path><path d="M386,294.73c8.14-4.17,18.18-26,20.11-30.27,1.23-2.74,2.36-5.52,3.47-8.32,2.22-5.59,4.26-11.25,6.21-16.94,0-.1.17,0,.15.05q-1.61,6.58-3.85,13a49.22,49.22,0,0,0,2.66-5,.08.08,0,0,1,.14.06,27.4,27.4,0,0,1-3.09,5.74c-1.53,4.3-3.25,8.53-5.18,12.66-.55,1.19-12.16,27.91-21.25,30.39-3.17.86-14,.08-16.28-.44-.1,0-.13-.15,0-.15C372.16,295.51,383.05,296.22,386,294.73Z" style="fill: rgb(38, 50, 56); transform-origin: 392.473px 267.821px;" id="elekaklyeunbw" class="animable"></path><path d="M343.11,285.47c.4-1.12.82-2.24,1.23-3.35.83-2.24,5.84-15.52,8-19.67.06-.11.23,0,.2.09-1.22,4.55-6.53,17.65-7.42,19.82-.45,1.1-.91,2.21-1.38,3.31s-1.07,2.15-1.53,3.26c-.05.11-.22.06-.18-.05C342.44,287.76,342.71,286.59,343.11,285.47Z" style="fill: rgb(38, 50, 56); transform-origin: 347.284px 275.698px;" id="elsz1gd6naqgf" class="animable"></path><path d="M347.54,257c2,.08,19.87,4.24,23.82,5.13a8.06,8.06,0,0,0,2.92.4,4.21,4.21,0,0,0,2.34-1.75c1.28-1.47,15.27-20,16.28-20.87.39-.34.69-.41.33.18-.62,1-14.22,19.25-15.46,20.69s-2.23,2.74-4.15,2.66c-.85,0-25-5.45-26.16-5.94C347.21,257.38,347.23,257,347.54,257Z" style="fill: rgb(38, 50, 56); transform-origin: 370.34px 251.547px;" id="ellebg18lg91h" class="animable"></path><path d="M393.42,226c3.64-.08,11.74-6,12.92-11.56.08-.38-1.45-3.66-3.11-7.73-1-2.48-2.06-5.26-2.84-7.87-.16-.53-15.16,8.87-15.16,8.87a43.55,43.55,0,0,1,4.58,9.54,6.44,6.44,0,0,1,.21,1.1,1.68,1.68,0,0,0,0,.18C390.32,220.71,389.54,226.12,393.42,226Z" style="fill: rgb(247, 169, 160); transform-origin: 395.787px 212.41px;" id="elykjc3px2mob" class="animable"></path><path d="M390,218.39a1.49,1.49,0,0,0,0,.18,11.55,11.55,0,0,0,1.7-.41c9.56-3.09,8.49-15.9,8.06-19.1-2.78,1.29-14.58,8.69-14.58,8.69a43.32,43.32,0,0,1,4.58,9.54A5.69,5.69,0,0,1,390,218.39Z" style="fill: rgb(38, 50, 56); transform-origin: 392.604px 208.815px;" id="el2npgli41ucm" class="animable"></path><path d="M397.35,177.68c3.33,5.38,4.73,23.09,1.56,28-4.58,7.06-14.31,10.21-20.88,4.19-6.36-5.84-7.77-29-4-33.61C379.51,169.36,392.42,169.74,397.35,177.68Z" style="fill: rgb(247, 169, 160); transform-origin: 386.326px 192.219px;" id="el1j9e5ubglha" class="animable"></path><path d="M383.55,192.17s.09.05.1.1c.06,1.19.33,2.55,1.44,2.86,0,0,0,.07,0,.06C383.76,195.12,383.41,193.31,383.55,192.17Z" style="fill: rgb(38, 50, 56); transform-origin: 384.306px 193.68px;" id="el40ebo9kb05" class="animable"></path><path d="M384.51,190.83c1.9-.3,2.37,3.53.61,3.82S382.91,191.09,384.51,190.83Z" style="fill: rgb(38, 50, 56); transform-origin: 384.871px 192.739px;" id="el5461n4tjjc3" class="animable"></path><path d="M376.69,193.21c0-.05-.08.06-.08.11.19,1.19.2,2.57-.83,3.1,0,0,0,.08,0,.06C377.09,196.14,377.06,194.3,376.69,193.21Z" style="fill: rgb(38, 50, 56); transform-origin: 376.345px 194.84px;" id="elxrgyg1d6b1" class="animable"></path><path d="M375.48,192.1c-1.93.09-1.61,3.94.18,3.85S377.1,192,375.48,192.1Z" style="fill: rgb(38, 50, 56); transform-origin: 375.513px 194.025px;" id="elzxdfldo3r2i" class="animable"></path><path d="M385.8,188.89a14.33,14.33,0,0,1-1.55-.34,2.49,2.49,0,0,1-1.51-.65.81.81,0,0,1,0-1,2,2,0,0,1,2-.46,3,3,0,0,1,1.86,1.07A.87.87,0,0,1,385.8,188.89Z" style="fill: rgb(38, 50, 56); transform-origin: 384.668px 187.619px;" id="elc8n6kjtko4v" class="animable"></path><path d="M373.76,190.35a15.47,15.47,0,0,0,1.47-.58,2.58,2.58,0,0,0,1.4-.89.82.82,0,0,0-.17-1,2,2,0,0,0-2-.13,3,3,0,0,0-1.67,1.35A.88.88,0,0,0,373.76,190.35Z" style="fill: rgb(38, 50, 56); transform-origin: 374.715px 188.955px;" id="el3mu2s90o208" class="animable"></path><path d="M386,203.06c-.25.31-.49.73-.91.82a3.3,3.3,0,0,1-1.32-.14s-.07,0,0,.06a1.6,1.6,0,0,0,1.59.46,1.27,1.27,0,0,0,.8-1.16C386.13,203,386,203,386,203.06Z" style="fill: rgb(38, 50, 56); transform-origin: 384.949px 203.667px;" id="el2x51r8w80kb" class="animable"></path><path d="M384.31,199.66a4.07,4.07,0,0,1-2.47,2.13,5.06,5.06,0,0,1-1.45.24h-.55a.31.31,0,0,1-.27-.24h0a.48.48,0,0,1,0-.12h0v-.1c-.13-.92-.22-2.32-.22-2.32-.31.21-1.92,1.19-1.95.71a61.58,61.58,0,0,1,.06-12.44c0-.13.22-.13.22,0,.4,3.82.11,7.69.45,11.53a7.08,7.08,0,0,1,1.83-.81c.14,0,.12,2.71.21,3.11a.18.18,0,0,0,0,0,5.68,5.68,0,0,0,4-1.82C384.27,199.48,384.37,199.55,384.31,199.66Z" style="fill: rgb(38, 50, 56); transform-origin: 380.721px 194.726px;" id="elhc47zd61b5p" class="animable"></path><path d="M380.87,201.5a4.86,4.86,0,0,0,2.11,1.26,2.23,2.23,0,0,0,1.32-.08c.92-.37.83-1.24.57-2a5.27,5.27,0,0,0-.57-1.08A6.25,6.25,0,0,1,380.87,201.5Z" style="fill: rgb(38, 50, 56); transform-origin: 382.958px 201.212px;" id="elqdfuzmww1g8" class="animable"></path><path d="M383,202.76a2.23,2.23,0,0,0,1.32-.08c.92-.37.83-1.24.57-2A2.24,2.24,0,0,0,383,202.76Z" style="fill: rgb(255, 155, 188); transform-origin: 384.033px 201.752px;" id="eljiqio1n3a2" class="animable"></path><path d="M398.94,192.73c-3.13.33-4.09-7.29-4.09-7.29s-4.87-.06-8.27-6.16c0,0-5.44,4.83-10.69,4.75-8.24-.11-9.76-10.54-7.12-13.15,3.74-3.71,12-.6,12-.6s10.9-5.09,15.59,2.07a5.94,5.94,0,0,1,6.43,4.94C404.1,182.87,401.28,192.48,398.94,192.73Z" style="fill: rgb(38, 50, 56); transform-origin: 385.354px 180.633px;" id="el0ro738ju0qd" class="animable"></path><path d="M396.11,186.14a10.66,10.66,0,0,1-6.52-2.26,8,8,0,0,1-3-6.7c0-.13-.2-.14-.21,0a9.19,9.19,0,0,0,2.53,7.38,7.46,7.46,0,0,0,7.21,1.82A.12.12,0,0,0,396.11,186.14Z" style="fill: rgb(38, 50, 56); transform-origin: 391.281px 181.869px;" id="el7u3z41wa5ku" class="animable"></path><path d="M402.67,173.93c-1.91-1.74-4.37-1.65-6.73-1.17-.13,0-.08.25.05.21a6.68,6.68,0,0,1,6.44,2.22c1.51,1.68,1.64,4.09,1.5,6.24a16.84,16.84,0,0,1-5,11,.05.05,0,0,0,.07.08,16.84,16.84,0,0,0,5.64-12.08C404.7,178.19,404.42,175.53,402.67,173.93Z" style="fill: rgb(38, 50, 56); transform-origin: 400.256px 182.492px;" id="el4j2grykrwoo" class="animable"></path><path d="M381.17,170.6a7.91,7.91,0,0,0-5-2.63,9.53,9.53,0,0,0-6.52,1.78,5.34,5.34,0,0,0-2,5,9.49,9.49,0,0,0,3.07,5.55,0,0,0,0,0,.07-.07,9.49,9.49,0,0,1-2.53-5.08,5,5,0,0,1,2.14-4.78c3-2,7.88-2.56,10.58.42A.11.11,0,0,0,381.17,170.6Z" style="fill: rgb(38, 50, 56); transform-origin: 374.4px 174.113px;" id="elmgljuw0ck9" class="animable"></path><path d="M374.21,199.37c-2,.09-3.7-2.27-3.84-5.27s1.37-5.5,3.35-5.59,3.7,2.28,3.84,5.27S376.19,199.29,374.21,199.37Zm-.45-10.13c-1.58.07-2.77,2.24-2.66,4.83s1.5,4.65,3.08,4.58,2.76-2.24,2.65-4.83S375.34,189.17,373.76,189.24Z" style="fill: rgb(69, 90, 100); transform-origin: 373.965px 193.94px;" id="elpag6n0ynnc" class="animable"></path><path d="M386,198.83a5.45,5.45,0,1,1,4.83-5.65A5.26,5.26,0,0,1,386,198.83Zm-.45-10.13a4.72,4.72,0,1,0,4.55,4.51A4.55,4.55,0,0,0,385.53,188.7Z" style="fill: rgb(69, 90, 100); transform-origin: 385.39px 193.415px;" id="el1dppapybnhe" class="animable"></path><path d="M380.93,193.14c-2.54-.84-3.63.1-3.64.11l-.44-.55c.06,0,1.34-1.22,4.27-.25Z" style="fill: rgb(69, 90, 100); transform-origin: 378.985px 192.663px;" id="eletokgpbc0ae" class="animable"></path><path d="M390.38,192.72l-.16-.71c.47-.11,9.39-2.18,10.59-2.3s4.3,1.4,4.65,1.57l-.33.65c-.86-.44-3.26-1.54-4.19-1.5h-.05C400,190.53,394.33,191.81,390.38,192.72Z" style="fill: rgb(69, 90, 100); transform-origin: 397.84px 191.212px;" id="el18804eheq8n" class="animable"></path><path d="M396.78,192.78s2.5-6.43,5.32-5.67,1.88,9.43-.78,11.23a3.05,3.05,0,0,1-4.37-.63Z" style="fill: rgb(247, 169, 160); transform-origin: 400.297px 193.02px;" id="el5phceywdxd2" class="animable"></path><path d="M401.77,189.59c.05,0,.07,0,0,.07-1.84,1.33-2.46,3.5-2.74,5.65a1.7,1.7,0,0,1,2.35-1c.06,0,0,.12,0,.12a1.89,1.89,0,0,0-1.86,1.13,9.08,9.08,0,0,0-.56,1.86c0,.21-.41.19-.39,0v-.06C397.88,194.69,399,190.53,401.77,189.59Z" style="fill: rgb(38, 50, 56); transform-origin: 400.093px 193.58px;" id="el0zj5roq3q9ea" class="animable"></path><path d="M388.74,218.22s.06,0,.06,0c-.45,3.42-1.27,11.36,3.95,11.22,2.1-.06,4.11-1.29,5.79-2.51a29.9,29.9,0,0,0,4.73-4.34,44.86,44.86,0,0,0,4.53-5.67c.05-.09.17,0,.12.1-1.38,2-2.56,4.13-4.13,6a26.15,26.15,0,0,1-5.11,4.81c-1.8,1.25-3.93,2.46-6.15,2.41a4.17,4.17,0,0,1-4-3.55A19.78,19.78,0,0,1,388.74,218.22Z" style="fill: rgb(38, 50, 56); transform-origin: 398.051px 223.562px;" id="el1ss9xcjhe7w" class="animable"></path></g><g id="freepik--character-1--inject-39" class="animable animator-active" style="transform-origin: 160.645px 164.816px;"><polygon points="54.01 259.71 276.9 259.71 276.9 174.54 54.01 174.54 54.01 174.54 54.01 259.71 54.01 259.71" style="fill: rgb(69, 90, 100); transform-origin: 165.455px 217.125px;" id="eloog701d6o7e" class="animable"></polygon><polygon points="259.12 281 259.12 259.71 241.09 259.71 259.12 281" style="fill: rgb(69, 90, 100); transform-origin: 250.105px 270.355px;" id="el5h3u7xv8cnt" class="animable"></polygon><rect x="67.17" y="189.27" width="196.56" height="1.62" style="fill: rgb(255, 255, 255); transform-origin: 165.45px 190.08px;" id="elhotnurit90f" class="animable"></rect><rect x="67.17" y="198.01" width="154.32" height="1.62" style="fill: rgb(255, 255, 255); transform-origin: 144.33px 198.82px;" id="els6njnw6jky" class="animable"></rect><rect x="67.17" y="215.49" width="179.83" height="1.62" style="fill: rgb(255, 255, 255); transform-origin: 157.085px 216.3px;" id="el04a3srjbfdpx" class="animable"></rect><rect x="67.17" y="224.23" width="196.56" height="1.62" style="fill: rgb(255, 255, 255); transform-origin: 165.45px 225.04px;" id="elythp439bafh" class="animable"></rect><rect x="67.17" y="232.96" width="196.56" height="1.62" style="fill: rgb(255, 255, 255); transform-origin: 165.45px 233.77px;" id="el6drxfujbwmx" class="animable"></rect><rect x="67.17" y="241.7" width="140.19" height="1.62" style="fill: rgb(255, 255, 255); transform-origin: 137.265px 242.51px;" id="elwnj4qwlkih9" class="animable"></rect><path d="M78.76,82.75C75.13,93,69,104.78,70.47,116c1.13,8.79,6.85,16.21,13.38,21.84,14.38,12.37,37.33,20.37,54,7.41,6.64-5.18,11.58-18.65,5.4-26-3.18-3.77-7.7-5.79-11.8-8.35a19.92,19.92,0,0,1-9.74-14.28c-2.09-12.31,1.34-19.82,3.83-31.7a8.63,8.63,0,0,0-1-6.92,15.28,15.28,0,0,0-5.71-5.89,15.2,15.2,0,0,0-6.68-3.29c-5.29-1-11.64,2.22-16.49,4s-7.7,4.32-9.54,9.26C83.55,68.9,81.21,75.84,78.76,82.75Z" style="fill: rgb(38, 50, 56); transform-origin: 108.161px 100.252px;" id="el3up8ils45g3" class="animable"></path><path d="M76,87.28c3.94-9.22,8-18.35,12.1-27.51,0-.05.12,0,.09,0-3.11,7.64-6.12,15.31-9.34,22.9s-6.91,14.88-9.39,22.58C63.85,122.55,79.57,135,94.6,138.65c.68.17.34,1.24-.34,1-13.1-3.6-27.26-12.73-26.91-28C67.55,103.29,72.77,94.81,76,87.28Z" style="fill: rgb(38, 50, 56); transform-origin: 81.1572px 99.7163px;" id="el8nghtu8bkv3" class="animable"></path><path d="M124.93,63.75a.15.15,0,1,1,.28.09c-2.46,9.68-6.23,20.75-3.31,30.71a25.35,25.35,0,0,0,8.3,12.5c3.14,2.55,6.91,3.83,10.44,5.7,13.79,7.32,7.93,27.17-5.06,31.67-.27.09-.45-.38-.18-.48,9.31-3.71,15.08-13.83,11.38-23.66-3-7.88-13-8.71-18.66-14.19C116.41,94.73,120.43,77.53,124.93,63.75Z" style="fill: rgb(38, 50, 56); transform-origin: 134.5px 104.024px;" id="elb10vmg2xrd" class="animable"></path><path d="M167.91,77.64l-14.18,30.57a1.17,1.17,0,0,0,.73,1.91L171,113.26a2.72,2.72,0,0,0,2.63-1.27l14.18-30.57a1.16,1.16,0,0,0-.73-1.9l-16.57-3.15A2.72,2.72,0,0,0,167.91,77.64Z" style="fill: rgb(166, 166, 166); transform-origin: 170.771px 94.8166px;" id="elepd9m4ctbnd" class="animable"></path><path d="M169.88,78,155.7,108.57a1.17,1.17,0,0,0,.73,1.91L173,113.62a2.77,2.77,0,0,0,2.63-1.27L189.8,81.78a1.17,1.17,0,0,0-.73-1.91L172.5,76.73A2.71,2.71,0,0,0,169.88,78Z" style="fill: rgb(219, 219, 219); transform-origin: 172.75px 95.1736px;" id="elxhc4fjrvcv" class="animable"></path><path d="M174.14,80.33a1.43,1.43,0,1,1-1.1-1.7A1.42,1.42,0,0,1,174.14,80.33Z" style="fill: rgb(38, 50, 56); transform-origin: 172.743px 80.0286px;" id="elre747fnka7" class="animable"></path><path d="M105.29,116.12c5.39,21.79,21.25,51.85,29.92,53.7,4.13.87,11.32,3.33,17.69-.34,13.91-8,27.75-25.88,32-36.83,1.52-3.9-16.39-16.56-19.94-13.85-8.33,6.35-19.23,19.89-20.42,19.56-4.38-1.22-18.9-19.17-29-31.79C103.28,91.25,103.14,107.44,105.29,116.12Z" style="fill: rgb(211, 118, 106); transform-origin: 144.614px 135.836px;" id="el2e414cceq7h" class="animable"></path><path d="M189.57,111.87c-.45-8.61-1.89-10.75,1.6-18.22,2.28-4.91.13-8.47-4.34-5.06-7.32,5.57-9.08,16.81-8.57,20.88Z" style="fill: rgb(211, 118, 106); transform-origin: 185.134px 99.5556px;" id="elyhnje2hjb2b" class="animable"></path><path d="M183.27,136s5.93-10.7,6.37-19.92c.29-6.38-.61-20.33-16.56-30.77-3.78-2.48-10.93-3.33-6.22,3,3.35,4.47,6.82,6.29,8.29,9.24,0,0-9.22,0-11.55,3.89A83.8,83.8,0,0,0,158.23,112a17.5,17.5,0,0,0,1.89,1.19s-2.07,3.7-.25,9.91Z" style="fill: rgb(211, 118, 106); transform-origin: 173.955px 109.728px;" id="elwry1yybod8s" class="animable"></path><path d="M189,109.91c-2.08-2.62-6.59-8.1-11.83-11.3-5.83-3.56-18-8.84-20.59-4.52-1.9,3.18,2.58,5.6,2.58,5.6s-5.5-1.12-6.58,2.12c-1,3,2.58,4.62,2.58,4.62s-3.45-.11-3.85,2.92c-.48,3.64,6.83,3.27,9.52,7.38C161.39,117.66,189,109.91,189,109.91Z" style="fill: rgb(211, 118, 106); transform-origin: 170.144px 104.637px;" id="elhpgroeywcn" class="animable"></path><path d="M174.38,105.39a27.14,27.14,0,0,0-15.15-5.77c-.14,0-.22.1-.09.13a67.14,67.14,0,0,1,15.21,5.69S174.41,105.41,174.38,105.39Z" style="fill: rgb(38, 50, 56); transform-origin: 166.731px 102.53px;" id="el6csddd2pyl3" class="animable"></path><path d="M170.62,111.17c-2.23-1.65-9.2-4.94-15.47-4.86-.14,0-.21.11-.08.14a71.6,71.6,0,0,1,15.52,4.77S170.65,111.19,170.62,111.17Z" style="fill: rgb(38, 50, 56); transform-origin: 162.815px 108.764px;" id="elifbar3ps51" class="animable"></path><path d="M113.05,144l18.78-20.58s-12.8-16.14-21.21-23c-4.71-3.87-7.77-.26-7.43,5.23C104.37,124.88,113.05,144,113.05,144Z" style="fill: rgb(67, 97, 238); transform-origin: 117.497px 121.402px;" id="elqjcty522bnh" class="animable"></path><path d="M107.81,102.59a1.1,1.1,0,1,1-1.09-1.09A1.09,1.09,0,0,1,107.81,102.59Zm-1.09,15.77a1.1,1.1,0,1,0,1.09,1.1A1.1,1.1,0,0,0,106.72,118.36Zm12.38,0a1.1,1.1,0,1,0,1.09,1.1A1.1,1.1,0,0,0,119.1,118.36ZM112.91,110a1.1,1.1,0,1,0,1.09,1.09A1.09,1.09,0,0,0,112.91,110Zm6.19,25.25a1.1,1.1,0,1,0,1.09,1.09A1.09,1.09,0,0,0,119.1,135.23Zm-6.19-8.39a1.1,1.1,0,1,0,1.09,1.1A1.1,1.1,0,0,0,112.91,126.84Zm12.38,0a1.1,1.1,0,1,0,1.09,1.1A1.1,1.1,0,0,0,125.29,126.84Zm-12.38,16.87.14.32.23-.25A.9.9,0,0,0,112.91,143.71Z" style="fill: rgb(255, 255, 255); transform-origin: 115.995px 122.775px;" id="elon1apvfczpa" class="animable"></path><path d="M127.93,121.21c-3.15,2.93-11.47,11.11-16.18,17.14,0,0,.1.16.13.13,4.68-4.42,13.35-13.9,16.24-17.08C128.17,121.34,128,121.16,127.93,121.21Z" style="fill: rgb(38, 50, 56); transform-origin: 119.94px 129.843px;" id="eloo5qe875u9t" class="animable"></path><g id="elr6faxxjxe6s"><path d="M129.68,125.79,113.05,144s-8.67-19.15-9.86-38.37c-.24-3.78,1.14-6.66,3.55-6.84Z" style="opacity: 0.1; transform-origin: 116.422px 121.395px;" class="animable"></path></g><path d="M127.56,174.56H58.07s8.19-47.6,30.58-73.09c6-6.88,15.12-5.71,20.3-1.06a48.19,48.19,0,0,1,5,5.73c4.71,6,12.4,20.57,13.11,24.49,1.19,6.5-4.55,13.51-4.55,13.51Z" style="fill: rgb(67, 97, 238); transform-origin: 92.815px 135.588px;" id="elkkyraclypi" class="animable"></path><path d="M95.43,102.59a1.1,1.1,0,1,1-1.09-1.09A1.09,1.09,0,0,1,95.43,102.59Zm11.29-1.09a1.1,1.1,0,1,0,1.09,1.09A1.09,1.09,0,0,0,106.72,101.5ZM82,118.36a1.1,1.1,0,1,0,1.09,1.1A1.1,1.1,0,0,0,82,118.36Zm12.38,0a1.1,1.1,0,1,0,1.09,1.1A1.1,1.1,0,0,0,94.34,118.36Zm12.38,0a1.1,1.1,0,1,0,1.09,1.1A1.1,1.1,0,0,0,106.72,118.36Zm12.38,0a1.1,1.1,0,1,0,1.09,1.1A1.1,1.1,0,0,0,119.1,118.36ZM88.15,110a1.1,1.1,0,1,0,1.09,1.09A1.09,1.09,0,0,0,88.15,110Zm12.38,0a1.1,1.1,0,1,0,1.09,1.09A1.09,1.09,0,0,0,100.53,110Zm12.38,0a1.1,1.1,0,1,0,1.09,1.09A1.09,1.09,0,0,0,112.91,110ZM69.58,135.23l-.23,0q-.34.85-.66,1.71a1.07,1.07,0,0,0,.89.46,1.1,1.1,0,0,0,0-2.19Zm12.38,0a1.1,1.1,0,1,0,1.09,1.09A1.09,1.09,0,0,0,82,135.23Zm12.38,0a1.1,1.1,0,1,0,1.09,1.09A1.09,1.09,0,0,0,94.34,135.23Zm12.38,0a1.1,1.1,0,1,0,1.09,1.09A1.09,1.09,0,0,0,106.72,135.23Zm12.38,0a1.1,1.1,0,1,0,1.09,1.09A1.09,1.09,0,0,0,119.1,135.23Zm-43.33-8.39a1.1,1.1,0,1,0,1.09,1.1A1.1,1.1,0,0,0,75.77,126.84Zm12.38,0a1.1,1.1,0,1,0,1.09,1.1A1.1,1.1,0,0,0,88.15,126.84Zm12.38,0a1.1,1.1,0,1,0,1.09,1.1A1.1,1.1,0,0,0,100.53,126.84Zm12.38,0a1.1,1.1,0,1,0,1.09,1.1A1.1,1.1,0,0,0,112.91,126.84Zm12.93.16a1,1,0,0,0-.55-.16,1.1,1.1,0,1,0,0,2.19,1.08,1.08,0,0,0,1-.81ZM69.58,152.09a1.1,1.1,0,1,0,1.09,1.1A1.1,1.1,0,0,0,69.58,152.09Zm12.38,0a1.1,1.1,0,1,0,1.09,1.1A1.1,1.1,0,0,0,82,152.09Zm12.38,0a1.1,1.1,0,1,0,1.09,1.1A1.1,1.1,0,0,0,94.34,152.09Zm12.38,0a1.1,1.1,0,1,0,1.09,1.1A1.1,1.1,0,0,0,106.72,152.09Zm12.38,0a1.1,1.1,0,1,0,1.09,1.1A1.1,1.1,0,0,0,119.1,152.09Zm-43.33-8.38a1.1,1.1,0,1,0,1.09,1.09A1.09,1.09,0,0,0,75.77,143.71Zm12.38,0a1.1,1.1,0,1,0,1.09,1.09A1.09,1.09,0,0,0,88.15,143.71Zm12.38,0a1.1,1.1,0,1,0,1.09,1.09A1.09,1.09,0,0,0,100.53,143.71Zm12.38,0A1.1,1.1,0,1,0,114,144.8,1.09,1.09,0,0,0,112.91,143.71ZM69.58,169a1.1,1.1,0,1,0,1.09,1.09A1.09,1.09,0,0,0,69.58,169ZM82,169a1.1,1.1,0,1,0,1.09,1.09A1.09,1.09,0,0,0,82,169Zm12.38,0a1.1,1.1,0,1,0,1.09,1.09A1.09,1.09,0,0,0,94.34,169Zm12.38,0a1.1,1.1,0,1,0,1.09,1.09A1.09,1.09,0,0,0,106.72,169Zm12.38,0a1.1,1.1,0,1,0,1.09,1.09A1.09,1.09,0,0,0,119.1,169Zm-55.71-8.39a1.1,1.1,0,1,0,1.09,1.1A1.1,1.1,0,0,0,63.39,160.57Zm12.38,0a1.1,1.1,0,1,0,1.09,1.1A1.1,1.1,0,0,0,75.77,160.57Zm12.38,0a1.1,1.1,0,1,0,1.09,1.1A1.1,1.1,0,0,0,88.15,160.57Zm12.38,0a1.1,1.1,0,1,0,1.09,1.1A1.1,1.1,0,0,0,100.53,160.57Zm12.38,0a1.1,1.1,0,1,0,1.09,1.1A1.1,1.1,0,0,0,112.91,160.57Zm12.35,0a1.1,1.1,0,0,0,0,2.19,1.13,1.13,0,0,0,.32,0Z" style="fill: rgb(255, 255, 255); transform-origin: 94.305px 136.35px;" id="el1we91sxh47h" class="animable"></path><path d="M111.74,141.49a63.73,63.73,0,0,0-9.3,1.53c-1.51.39-3,.84-4.49,1.33-.74.25-1.48.47-2.23.68a9.79,9.79,0,0,1-2.39.45.06.06,0,1,0,0,.11,16.2,16.2,0,0,0,2.31,0,16.69,16.69,0,0,0,2.2-.41c1.54-.38,3.06-.83,4.59-1.23,3.1-.79,6.2-1.59,9.35-2.16C111.93,141.72,111.89,141.48,111.74,141.49Z" style="fill: rgb(38, 50, 56); transform-origin: 102.56px 143.56px;" id="elf9if8688oc" class="animable"></path><path d="M119.49,144.27a69.58,69.58,0,0,0-7.77-.38c-1.3,0-2.59.11-3.88.23-.62.06-1.24.14-1.85.21s-1.34.27-2,.34c-.07,0-.07.12,0,.12.64-.06,1.29,0,1.94,0l1.94-.05,3.88-.09c2.59-.09,5.17-.15,7.76-.15C119.63,144.48,119.62,144.28,119.49,144.27Z" style="fill: rgb(38, 50, 56); transform-origin: 111.766px 144.339px;" id="eleundbgvaczt" class="animable"></path><path d="M83.11,105.23C64,125.24,40.27,167.07,45,175.39c5.24,9.26,32.77-19.23,31.91-20.59-.74-1.16,8.78-26.34,15.69-44.76S87.83,100.28,83.11,105.23Z" style="fill: rgb(211, 118, 106); transform-origin: 69.5617px 138.026px;" id="eld7sp5ltp92i" class="animable"></path><path d="M59.71,129.22l27.42,4.94s6.84-19.43,8.2-30.22c.76-6-2.79-6.29-7.26-3.08C72.42,112.11,59.71,129.22,59.71,129.22Z" style="fill: rgb(67, 97, 238); transform-origin: 77.5715px 116.494px;" id="eljq0qlmws3m" class="animable"></path><path d="M95.43,102.59a1.1,1.1,0,1,1-1.09-1.09A1.09,1.09,0,0,1,95.43,102.59ZM69.58,118.36a1.1,1.1,0,1,0,1.09,1.1A1.1,1.1,0,0,0,69.58,118.36Zm12.38,0a1.1,1.1,0,1,0,1.09,1.1A1.1,1.1,0,0,0,82,118.36Zm-5.32-7.94c-.53.5-1.06,1-1.57,1.5a1.07,1.07,0,0,0,.7.25,1.09,1.09,0,0,0,1.09-1.1A1.06,1.06,0,0,0,76.64,110.42ZM88.15,110a1.1,1.1,0,1,0,1.09,1.09A1.09,1.09,0,0,0,88.15,110ZM63.39,126.84a1.1,1.1,0,1,0,1.09,1.1A1.1,1.1,0,0,0,63.39,126.84Zm12.38,0a1.1,1.1,0,1,0,1.09,1.1A1.1,1.1,0,0,0,75.77,126.84Zm12.38,0a1.1,1.1,0,1,0,1.09,1.1A1.1,1.1,0,0,0,88.15,126.84Z" style="fill: rgb(255, 255, 255); transform-origin: 78.855px 115.27px;" id="el8hvkp0r6xad" class="animable"></path><path d="M87,129.67a185,185,0,0,0-23.12-4.57s-.09.17,0,.18c6.23,1.6,18.87,3.9,23.1,4.64C87,129.94,87,129.69,87,129.67Z" style="fill: rgb(38, 50, 56); transform-origin: 75.42px 127.511px;" id="elqmpbkohwmao" class="animable"></path><path d="M83.79,133.56c1.13.1,2.25.24,3.37.39l-.23.14c.81-3,1.72-5.94,2.7-8.88s2-5.85,3.19-8.72c-.72,3-1.58,6-2.5,8.94s-1.91,5.89-3,8.79l-.07.18-.17,0C86,134.11,84.88,133.85,83.79,133.56Z" style="fill: rgb(38, 50, 56); transform-origin: 88.305px 125.445px;" id="elhfi3u1x5a26" class="animable"></path><path d="M91,122.4a8.73,8.73,0,0,1,.94-1.73,11.15,11.15,0,0,1,1.24-1.54,3.89,3.89,0,0,1-.33.94,6.13,6.13,0,0,1-.49.86A6.52,6.52,0,0,1,91,122.4Z" style="fill: rgb(38, 50, 56); transform-origin: 92.09px 120.765px;" id="elf5aolzv6hle" class="animable"></path><path d="M45,175.39c4.48,6.18,16.4,7.17,46.18,12.49,4.13.73,17.14-26.95,12.78-28-5.49-1.27-27.08-5-28.69-5.1C61.62,154.17,41.93,171.19,45,175.39Z" style="fill: rgb(211, 118, 106); transform-origin: 74.7609px 171.329px;" id="el5y3eld6mn7d" class="animable"></path><path d="M98,158.66s12.61,1.69,19,4.63c8.5,3.93,14.22,10.83,16.44,13.86,4.64,6.34,11.48,24.87,6.49,27.77-4.52,2.62-10.55-16.67-10.55-16.67s9.39,18.65,3.37,20.81-11.75-20.63-11.75-20.63,9.22,19.39,2.66,20.63c-5,.94-11.31-19.41-11.31-19.41s7.81,16.72,2.75,17.9c-5.59,1.32-12.63-17.1-12.63-17.1-13.37.86-20.08-4.21-24.43-8.37C76.91,181.07,98,158.66,98,158.66Z" style="fill: rgb(211, 118, 106); transform-origin: 109.835px 183.932px;" id="elhklpqpalrce" class="animable"></path><path d="M126.46,181.59c1.18,2.15,2.4,4.32,3.38,6.57s1.9,4.54,2.68,6.87a41.66,41.66,0,0,1,2.14,9.35c-1-5.61-4.45-13.72-5.44-16s-1.86-4.54-2.85-6.78A0,0,0,0,1,126.46,181.59Z" style="fill: rgb(38, 50, 56); transform-origin: 130.515px 192.985px;" id="el4lurq6daw0d" class="animable"></path><path d="M118.28,185c1.39,2.81,2.87,5.55,4.14,8.43s2.21,5.68,3.27,8.62c.08.23-.07.2-.16,0-1.18-2.89-2.49-5.48-3.7-8.36s-2.31-5.81-3.62-8.63C118.19,185,118.25,185,118.28,185Z" style="fill: rgb(38, 50, 56); transform-origin: 121.959px 193.606px;" id="elfuhlxnq7jfb" class="animable"></path><path d="M110.72,186.68a69.9,69.9,0,0,1,5.35,13.37c.08.23-.11.17-.2-.06-1.69-4.48-3-8-5.29-13.23C110.54,186.68,110.67,186.59,110.72,186.68Z" style="fill: rgb(38, 50, 56); transform-origin: 113.331px 193.419px;" id="elp4xpjqlv0de" class="animable"></path><path d="M62.09,158.14c2-1.25,7.58-4.19,13.1-3.38a.05.05,0,0,1,0,.1c-4.54,0-11,2.31-13.05,3.36C62.08,158.25,62,158.18,62.09,158.14Z" style="fill: rgb(38, 50, 56); transform-origin: 68.6448px 156.424px;" id="elxnfp84sy76p" class="animable"></path><path d="M97,98.52c.18,1.17,5,9.1,10.3,9.29,1.72.06,2.48-9.3,2.48-9.3l.21-.67,3-9.5-10.75-8.26L100.63,79s-.65,2.65-1.42,6c0,.15-.07.31-.11.47S99,85.77,99,86c-.12.49-.24,1-.36,1.5s-.17.76-.24,1.16-.16.8-.25,1.21A66.18,66.18,0,0,0,97,98.52Z" style="fill: rgb(211, 118, 106); transform-origin: 104.995px 93.4051px;" id="eliybebzflurc" class="animable"></path><path d="M99.21,84.94A20,20,0,0,0,110,97.84l3-9.5-10.75-8.26L100.63,79S100,81.63,99.21,84.94Z" style="fill: rgb(38, 50, 56); transform-origin: 106.105px 88.42px;" id="elkxi6m8lisz" class="animable"></path><path d="M128.6,76.18C127.51,93.61,117,94.93,113.19,94.69c-3.42-.22-15-1.39-15.73-18.84S105.2,53.39,113,53.47,129.69,58.74,128.6,76.18Z" style="fill: rgb(211, 118, 106); transform-origin: 113.054px 74.0911px;" id="el5yl6435po8p" class="animable"></path><path d="M125.39,71.87c-.41-.1-.76-.25-1.15-.38a2,2,0,0,1-1.09-.61.63.63,0,0,1,.08-.76,1.54,1.54,0,0,1,1.55-.18,2.26,2.26,0,0,1,1.33,1A.67.67,0,0,1,125.39,71.87Z" style="fill: rgb(38, 50, 56); transform-origin: 124.612px 70.8437px;" id="el8u2v8vatiyi" class="animable"></path><path d="M114.2,70.68c.41,0,.79-.07,1.2-.12a2,2,0,0,0,1.21-.35.63.63,0,0,0,.08-.75,1.52,1.52,0,0,0-1.47-.53,2.26,2.26,0,0,0-1.5.63A.67.67,0,0,0,114.2,70.68Z" style="fill: rgb(38, 50, 56); transform-origin: 115.162px 69.7908px;" id="ellyyav4vxcy" class="animable"></path><path d="M116,75.32s-.09.05-.1.09c-.07,1.19-.35,2.54-1.45,2.84,0,0,0,.07,0,.07C115.79,78.25,116.14,76.46,116,75.32Z" style="fill: rgb(38, 50, 56); transform-origin: 115.239px 76.82px;" id="elmhsv5ouiibj" class="animable"></path><path d="M115.07,74c-1.89-.32-2.39,3.49-.64,3.78S116.65,74.25,115.07,74Z" style="fill: rgb(38, 50, 56); transform-origin: 114.692px 75.8883px;" id="elhq9t2uqrcim" class="animable"></path><path d="M114.29,74.09c-.36.17-.73.51-1.14.5s-.77-.46-1-.88c0,0-.06,0-.07,0a1.41,1.41,0,0,0,.85,1.73c.7.19,1.29-.39,1.57-1.1C114.53,74.24,114.44,74,114.29,74.09Z" style="fill: rgb(38, 50, 56); transform-origin: 113.262px 74.5932px;" id="el7gg4yqdld4o" class="animable"></path><path d="M122.88,75.7s.09.06.08.11c-.2,1.18-.23,2.55.78,3.09,0,0,0,.08,0,.07C122.44,78.6,122.5,76.78,122.88,75.7Z" style="fill: rgb(38, 50, 56); transform-origin: 123.191px 77.3354px;" id="elyxu55n1gkep" class="animable"></path><path d="M124.1,74.61c1.92.12,1.54,3.94-.23,3.83S122.5,74.51,124.1,74.61Z" style="fill: rgb(38, 50, 56); transform-origin: 124.044px 76.5252px;" id="elxoli45ce8s" class="animable"></path><path d="M124.88,74.94c.28.23.54.63.9.69s.76-.32,1.07-.69c0,0,.06,0,.05,0-.05.73-.36,1.47-1.08,1.54s-1.06-.61-1.16-1.35C124.64,75,124.76,74.85,124.88,74.94Z" style="fill: rgb(38, 50, 56); transform-origin: 125.779px 75.6988px;" id="elol0o797x0k9" class="animable"></path><path d="M114.27,84.53c.23.33.44.75.86.86a3.06,3.06,0,0,0,1.31-.07,0,0,0,0,1,0,.07,1.6,1.6,0,0,1-1.6.38,1.27,1.27,0,0,1-.73-1.2C114.14,84.5,114.23,84.49,114.27,84.53Z" style="fill: rgb(38, 50, 56); transform-origin: 115.274px 85.1756px;" id="el77ybo4w9voq" class="animable"></path><path d="M120.27,80.72s0,1.8-.06,2.63A4.51,4.51,0,0,1,116,81.49c-.06-.09.07-.17.14-.1a6,6,0,0,0,3.51,1.46c.08-.22-.17-3.08,0-3.07a7.08,7.08,0,0,1,1.85.65c0-3.76-.53-7.49-.44-11.22a.11.11,0,0,1,.22,0,60.59,60.59,0,0,1,1,12.07C122.24,81.73,120.59,80.9,120.27,80.72Z" style="fill: rgb(38, 50, 56); transform-origin: 119.137px 76.2411px;" id="el9si58fbe6q" class="animable"></path><path d="M119.08,83.13a4.35,4.35,0,0,1-1.91,1.1,2,2,0,0,1-1.19-.08c-.82-.34-.73-1.13-.48-1.78a4.67,4.67,0,0,1,.52-1A5.57,5.57,0,0,0,119.08,83.13Z" style="fill: rgb(38, 50, 56); transform-origin: 117.202px 82.8276px;" id="elny0i03f0n79" class="animable"></path><path d="M117.17,84.23a2,2,0,0,1-1.19-.08c-.82-.34-.73-1.13-.48-1.78A2,2,0,0,1,117.17,84.23Z" style="fill: rgb(255, 155, 188); transform-origin: 116.247px 83.3276px;" id="el2048zric64r" class="animable"></path><path d="M98.16,75.12c3.15,1,5.37-6.23,5.37-6.23s14.21.26,17.49-10.72a19.3,19.3,0,0,0,7.61,12.18s1.83-12.38-7.46-16.6c0,0-11.25-6.68-19.86,1.63S96,74.43,98.16,75.12Z" style="fill: rgb(38, 50, 56); transform-origin: 112.236px 63.2129px;" id="elb9almdceveq" class="animable"></path><path d="M121.22,57.35a12.46,12.46,0,0,1-1.58,5,13,13,0,0,1-3.45,4,11.94,11.94,0,0,1-1.1.76l-.57.36-.59.29c-.41.19-.81.39-1.22.56l-1.26.4c-.22.06-.42.14-.64.19l-.65.12-1.3.24c-.87.07-1.75.1-2.62.12.86-.2,1.72-.3,2.56-.51l1.24-.33.62-.17c.2-.07.4-.16.6-.24.39-.16.79-.32,1.19-.46s.75-.39,1.13-.58l.56-.29.53-.36a12.05,12.05,0,0,0,1-.72A14.79,14.79,0,0,0,119.12,62a14.36,14.36,0,0,0,1.22-2.25A14.67,14.67,0,0,0,121.22,57.35Z" style="fill: rgb(38, 50, 56); transform-origin: 113.73px 63.37px;" id="elrygmajukpk8" class="animable"></path><path d="M100.28,76.79s-3-6-5.61-5-1,9.22,1.73,10.72a3,3,0,0,0,4.15-1Z" style="fill: rgb(211, 118, 106); transform-origin: 96.9486px 77.319px;" id="elwphkgsevwfe" class="animable"></path><path d="M95.21,74.16a0,0,0,0,0,0,.07c1.89,1.12,2.67,3.15,3.12,5.2A1.62,1.62,0,0,0,96,78.62c-.06,0,0,.12,0,.12a1.83,1.83,0,0,1,1.89.92,9.77,9.77,0,0,1,.71,1.74c.06.2.4.15.36-.07a.11.11,0,0,0,0,0C99.38,78.72,97.92,74.83,95.21,74.16Z" style="fill: rgb(38, 50, 56); transform-origin: 97.1206px 77.8428px;" id="el1b413fo7bp9" class="animable"></path><path d="M98.19,82a.71.71,0,1,1-.53-.85A.71.71,0,0,1,98.19,82Z" style="fill: rgb(255, 255, 255); transform-origin: 97.498px 81.8413px;" id="el2mo5685itkh" class="animable"></path><path d="M96.75,80.49a.51.51,0,0,1-1-.22.52.52,0,0,1,.62-.39A.51.51,0,0,1,96.75,80.49Z" style="fill: rgb(255, 255, 255); transform-origin: 96.2506px 80.379px;" id="el91fjyqkl55c" class="animable"></path><path d="M94.25,73.75l-1.13-.36a.3.3,0,0,1-.2-.39l0-.12a.31.31,0,0,1,.39-.2l1.12.36a.3.3,0,0,1,.2.39l0,.12A.3.3,0,0,1,94.25,73.75Z" style="fill: rgb(67, 97, 238); transform-origin: 93.775px 73.2148px;" id="elsu25vxez84" class="animable"></path><g id="elko86ojss59"><rect x="92.59" y="74.01" width="1.8" height="0.75" rx="0.31" style="fill: rgb(67, 97, 238); transform-origin: 93.49px 74.385px; transform: rotate(5.53deg);" class="animable"></rect></g><path d="M87.72,101.12s14.29,8.57,20.48,7.82a6.54,6.54,0,0,0,6-5.36,19.89,19.89,0,0,0-15.73-7C93.06,96.81,87.72,101.12,87.72,101.12Z" style="fill: rgb(211, 118, 106); transform-origin: 100.96px 102.779px;" id="el023u5iba2k6z" class="animable"></path></g><defs>     <filter id="active" height="200%">         <feMorphology in="SourceAlpha" result="DILATED" operator="dilate" radius="2"></feMorphology>                <feFlood flood-color="#32DFEC" flood-opacity="1" result="PINK"></feFlood>        <feComposite in="PINK" in2="DILATED" operator="in" result="OUTLINE"></feComposite>        <feMerge>            <feMergeNode in="OUTLINE"></feMergeNode>            <feMergeNode in="SourceGraphic"></feMergeNode>        </feMerge>    </filter>    <filter id="hover" height="200%">        <feMorphology in="SourceAlpha" result="DILATED" operator="dilate" radius="2"></feMorphology>                <feFlood flood-color="#ff0000" flood-opacity="0.5" result="PINK"></feFlood>        <feComposite in="PINK" in2="DILATED" operator="in" result="OUTLINE"></feComposite>        <feMerge>            <feMergeNode in="OUTLINE"></feMergeNode>            <feMergeNode in="SourceGraphic"></feMergeNode>        </feMerge>            <feColorMatrix type="matrix" values="0   0   0   0   0                0   1   0   0   0                0   0   0   0   0                0   0   0   1   0 "></feColorMatrix>    </filter></defs></svg>